<svg width="23" height="24" viewBox="0 0 23 24" fill="none" xmlns="http://www.w3.org/2000/svg">
    <path
        d="M1.41878 6.66536H21.7858M3.78578 1.33203H19.2144C19.8963 1.33203 20.5504 1.61298 21.0326 2.11308C21.5149 2.61318 21.7858 3.29145 21.7858 3.9987V19.9854C21.7858 20.6926 21.5149 21.3709 21.0326 21.871C20.5504 22.3711 19.8963 22.652 19.2144 22.652H3.78578C3.1038 22.652 2.44975 22.3711 1.96751 21.871C1.48527 21.3709 1.21436 20.6926 1.21436 19.9854V3.9987C1.21436 3.29145 1.48527 2.61318 1.96751 2.11308C2.44975 1.61298 3.1038 1.33203 3.78578 1.33203Z"
        stroke="#919EAB" stroke-linecap="round" stroke-linejoin="round" />
    <path fill-rule="evenodd" clip-rule="evenodd"
        d="M6.76357 15.54V14.1013H7.895C8.75385 14.1013 9.33757 13.5747 9.33757 12.8053C9.33757 12.1027 8.804 11.5693 7.91943 11.5693C7.00271 11.5693 6.43828 12.0573 6.37528 12.8973H4.62157C4.68714 11.1653 5.97285 10 8.01328 10C10.0229 10 11.1401 11.152 11.1337 12.5267C11.1273 13.6653 10.4369 14.4147 9.46357 14.6613V14.7853C10.7249 14.9733 11.4911 15.8067 11.4911 17.064C11.4911 18.7107 9.99714 19.8773 7.95028 19.8773C5.90342 19.8773 4.50971 18.716 4.42871 16.9387H6.24285C6.29942 17.7333 6.95257 18.2413 7.92585 18.2413C8.88628 18.2413 9.55871 17.7 9.55871 16.8867C9.55871 16.0533 8.93 15.54 7.913 15.54H6.76357ZM15.3779 19.636V12.1547H15.266L13.043 13.744V11.9147L15.3843 10.2413H17.2743V19.636H15.3779Z"
        fill="#919EAB" />
</svg>