<svg width="242" height="67" viewBox="0 0 242 67" fill="none" xmlns="http://www.w3.org/2000/svg">
    <path
        d="M57.4276 25.4533L56.3819 24.3978C56.1572 24.171 55.7913 24.171 55.5666 24.3978L39.8024 40.309C30.7794 49.4161 16.0869 49.7214 6.9689 40.7132C-2.41991 31.4404 -2.32196 16.1311 7.26275 6.9775C16.0034 -1.36774 30.6469 -1.28341 39.2953 7.15778C40.2719 8.11152 41.1477 9.12924 41.9227 10.1964C43.922 12.9558 43.5878 16.7853 41.1938 19.2017L36.982 23.4528L29.8172 30.6815C28.1204 32.3941 25.7753 33.4555 23.1854 33.4555C20.5955 33.4555 18.2533 32.3941 16.5536 30.6815L23.1854 23.9878L29.8172 17.2942L32.531 14.5551C32.7644 14.3196 32.7528 13.9357 32.5108 13.7118C27.0919 8.69889 18.6711 8.83846 13.4221 14.1335C8.03195 19.5768 8.03195 28.3989 13.4221 33.8422C15.9832 36.4272 19.2991 37.7822 22.6553 37.913C26.363 38.0555 30.1139 36.7005 32.9459 33.8422H32.9487C32.9775 33.8131 33.0064 33.784 33.0323 33.755L46.1201 20.548L48.9377 17.7042C49.1624 17.4774 49.1624 17.1081 48.9377 16.8813L47.8919 15.8258C47.5289 15.4594 47.7882 14.8313 48.3039 14.8342L57.7935 14.8866C58.1104 14.8866 58.3639 15.1454 58.3668 15.4652L58.4158 25.0404C58.4158 25.5609 57.7964 25.8226 57.4334 25.4533H57.4276Z"
        fill="#6959D2" />
    <path
        d="M71.965 46.5397L59.6705 12.6673H68.2014L76.2304 36.1271L84.2594 12.6673H92.7902L80.4958 46.5397H71.965ZM109.841 47.4806C106.37 47.4806 103.307 46.7383 100.652 45.2538C98.0171 43.7483 95.9471 41.6888 94.4417 39.0752C92.9571 36.4407 92.2149 33.4298 92.2149 30.0426C92.2149 26.3417 92.9467 23.1217 94.4103 20.3827C95.8739 17.6436 97.8916 15.5214 100.463 14.0159C103.035 12.4896 105.994 11.7264 109.339 11.7264C112.894 11.7264 115.915 12.5628 118.403 14.2355C120.891 15.9082 122.731 18.2604 123.923 21.2922C125.115 24.324 125.533 27.889 125.178 31.9871H116.741V28.8508C116.741 25.4008 116.187 22.9231 115.079 21.4177C113.991 19.8913 112.204 19.1282 109.716 19.1282C106.809 19.1282 104.666 20.0168 103.286 21.794C101.927 23.5504 101.247 26.1535 101.247 29.6035C101.247 32.7607 101.927 35.2071 103.286 36.9425C104.666 38.657 106.684 39.5143 109.339 39.5143C111.012 39.5143 112.444 39.1484 113.636 38.4166C114.828 37.6848 115.737 36.6289 116.365 35.2489L124.895 37.6952C123.62 40.7897 121.602 43.1943 118.842 44.9088C116.103 46.6233 113.103 47.4806 109.841 47.4806ZM98.613 31.9871V25.6517H121.069V31.9871H98.613ZM129.123 46.5397V12.6673H136.65V20.9472L135.835 19.8809C136.274 18.71 136.859 17.6436 137.591 16.6818C138.323 15.72 139.222 14.9255 140.288 14.2982C141.104 13.7964 141.992 13.4096 142.954 13.1378C143.916 12.845 144.909 12.6673 145.934 12.6046C146.958 12.521 147.983 12.5419 149.007 12.6673V20.6336C148.067 20.3409 146.969 20.2468 145.714 20.3513C144.481 20.435 143.362 20.7172 142.358 21.1981C141.355 21.6581 140.508 22.2749 139.818 23.0486C139.128 23.8013 138.605 24.7004 138.25 25.7458C137.894 26.7703 137.717 27.9308 137.717 29.2271V46.5397H129.123ZM166.969 47.4806C163.498 47.4806 160.435 46.7383 157.779 45.2538C155.145 43.7483 153.075 41.6888 151.569 39.0752C150.085 36.4407 149.343 33.4298 149.343 30.0426C149.343 26.3417 150.074 23.1217 151.538 20.3827C153.002 17.6436 155.019 15.5214 157.591 14.0159C160.163 12.4896 163.122 11.7264 166.467 11.7264C170.021 11.7264 173.043 12.5628 175.531 14.2355C178.019 15.9082 179.859 18.2604 181.051 21.2922C182.243 24.324 182.661 27.889 182.305 31.9871H173.869V28.8508C173.869 25.4008 173.315 22.9231 172.206 21.4177C171.119 19.8913 169.331 19.1282 166.843 19.1282C163.937 19.1282 161.794 20.0168 160.414 21.794C159.055 23.5504 158.375 26.1535 158.375 29.6035C158.375 32.7607 159.055 35.2071 160.414 36.9425C161.794 38.657 163.812 39.5143 166.467 39.5143C168.14 39.5143 169.572 39.1484 170.764 38.4166C171.956 37.6848 172.865 36.6289 173.492 35.2489L182.023 37.6952C180.748 40.7897 178.73 43.1943 175.97 44.9088C173.231 46.6233 170.231 47.4806 166.969 47.4806ZM155.741 31.9871V25.6517H178.197V31.9871H155.741ZM199.486 47.4806C195.221 47.4806 191.771 46.5188 189.136 44.5951C186.523 42.6506 184.934 39.9116 184.369 36.378L193.088 35.0607C193.443 36.6498 194.228 37.8939 195.44 38.7929C196.674 39.692 198.232 40.1416 200.113 40.1416C201.661 40.1416 202.852 39.8488 203.689 39.2634C204.525 38.657 204.943 37.8207 204.943 36.7543C204.943 36.0852 204.776 35.5521 204.442 35.1548C204.107 34.7366 203.354 34.3289 202.183 33.9316C201.033 33.5344 199.235 33.0116 196.789 32.3635C194.029 31.6526 191.823 30.858 190.171 29.9799C188.519 29.1017 187.328 28.0562 186.596 26.8435C185.864 25.6099 185.498 24.1254 185.498 22.3899C185.498 20.2154 186.052 18.3336 187.16 16.7445C188.269 15.1346 189.826 13.9009 191.833 13.0437C193.862 12.1655 196.245 11.7264 198.984 11.7264C201.64 11.7264 203.992 12.1341 206.041 12.9496C208.09 13.765 209.742 14.9255 210.996 16.4309C212.272 17.9364 213.056 19.7136 213.349 21.7627L204.63 23.3308C204.483 22.0763 203.94 21.0831 202.999 20.3513C202.058 19.6195 200.782 19.1909 199.172 19.0654C197.604 18.9609 196.339 19.17 195.378 19.6927C194.437 20.2154 193.966 20.9681 193.966 21.9509C193.966 22.5363 194.165 23.0277 194.562 23.4249C194.98 23.8222 195.827 24.2299 197.103 24.6481C198.399 25.0663 200.364 25.6099 202.999 26.279C205.571 26.9481 207.63 27.7322 209.177 28.6312C210.746 29.5094 211.885 30.5758 212.596 31.8303C213.307 33.0639 213.662 34.5589 213.662 36.3152C213.662 39.7861 212.408 42.5147 209.899 44.5011C207.39 46.4874 203.919 47.4806 199.486 47.4806ZM237.741 46.5397C235.4 46.9788 233.1 47.1669 230.842 47.1042C228.604 47.0624 226.597 46.6756 224.82 45.9438C223.063 45.1911 221.725 43.9888 220.805 42.337C219.969 40.7897 219.53 39.2216 219.488 37.6325C219.446 36.0225 219.425 34.2034 219.425 32.1753V3.25833H227.956V31.6735C227.956 32.9907 227.967 34.1825 227.988 35.2489C228.029 36.2943 228.249 37.1307 228.646 37.758C229.399 38.9498 230.601 39.5979 232.253 39.7025C233.905 39.807 235.734 39.7234 237.741 39.4516V46.5397ZM213.654 19.2536V12.6673H237.741V19.2536H213.654Z"
        fill="#6959D2" />
    <path
        d="M20.9852 66.3763C20.4737 66.3763 20.0116 66.2888 19.5991 66.1139C19.1899 65.9357 18.8516 65.6832 18.5842 65.3565C18.3202 65.0265 18.1486 64.6354 18.0694 64.1832L19.1486 64.0199C19.2575 64.4555 19.4852 64.7954 19.8318 65.0397C20.1783 65.2806 20.5826 65.4011 21.0446 65.4011C21.3318 65.4011 21.5958 65.3565 21.8367 65.2674C22.0776 65.175 22.2707 65.0446 22.4159 64.8763C22.5644 64.7047 22.6387 64.5001 22.6387 64.2624C22.6387 64.1337 22.6156 64.0199 22.5694 63.9209C22.5265 63.8218 22.4654 63.736 22.3862 63.6634C22.3103 63.5875 22.2163 63.5232 22.104 63.4704C21.9951 63.4143 21.8747 63.3664 21.7427 63.3268L19.9159 62.7872C19.7377 62.7344 19.5562 62.6667 19.3714 62.5842C19.1866 62.4984 19.0166 62.3879 18.8615 62.2525C18.7097 62.1139 18.5859 61.944 18.4902 61.7426C18.3945 61.538 18.3466 61.2905 18.3466 61.0001C18.3466 60.5611 18.4588 60.1898 18.6833 59.8862C18.911 59.5793 19.2179 59.3483 19.604 59.1931C19.9902 59.0347 20.4225 58.9555 20.9011 58.9555C21.3829 58.9621 21.8136 59.0479 22.1932 59.2129C22.576 59.378 22.8928 59.6156 23.1436 59.9258C23.3978 60.2327 23.5727 60.6057 23.6684 61.0446L22.5595 61.2327C22.51 60.9654 22.4044 60.736 22.2427 60.5446C22.0809 60.3499 21.8829 60.2014 21.6486 60.0991C21.4143 59.9935 21.1601 59.939 20.8862 59.9357C20.6222 59.9291 20.3796 59.9687 20.1585 60.0545C19.9407 60.1403 19.7658 60.2608 19.6337 60.4159C19.505 60.571 19.4407 60.7492 19.4407 60.9506C19.4407 61.1486 19.4984 61.3086 19.6139 61.4308C19.7295 61.5529 19.8714 61.6502 20.0397 61.7228C20.2113 61.7921 20.3813 61.8499 20.5496 61.8961L21.8664 62.2674C22.0314 62.3136 22.2179 62.3763 22.4258 62.4555C22.637 62.5314 22.84 62.6387 23.0347 62.7773C23.2328 62.9159 23.3961 63.1007 23.5248 63.3317C23.6535 63.5595 23.7179 63.8466 23.7179 64.1931C23.7179 64.5529 23.6453 64.8697 23.5001 65.1436C23.3549 65.4143 23.1552 65.642 22.9011 65.8268C22.6502 66.0083 22.3598 66.1453 22.0298 66.2377C21.6998 66.3301 21.3516 66.3763 20.9852 66.3763ZM27.3373 66.2278C27.0006 66.2938 26.6706 66.3218 26.3472 66.3119C26.0237 66.302 25.7349 66.2393 25.4808 66.1238C25.2267 66.0083 25.0353 65.8268 24.9066 65.5793C24.7911 65.3581 24.7283 65.1337 24.7184 64.906C24.7118 64.675 24.7085 64.4143 24.7085 64.1238V59.3961H25.7481V64.0743C25.7481 64.2888 25.7498 64.4753 25.7531 64.6337C25.7597 64.7921 25.7943 64.9258 25.8571 65.0347C25.9759 65.2393 26.164 65.3565 26.4214 65.3862C26.6821 65.4126 26.9874 65.4011 27.3373 65.3515V66.2278ZM23.6838 61.7129V60.8813H27.3373V61.7129H23.6838ZM27.9694 66.2278V60.8813H28.8902V62.1783L28.7615 62.01C28.8275 61.8383 28.9133 61.6816 29.0189 61.5397C29.1246 61.3945 29.2467 61.2756 29.3853 61.1832C29.5206 61.0842 29.6708 61.0083 29.8358 60.9555C30.0041 60.8994 30.1757 60.8664 30.3506 60.8565C30.5255 60.8433 30.6939 60.8516 30.8556 60.8813V61.8515C30.6807 61.8053 30.4859 61.7921 30.2714 61.8119C30.0602 61.8317 29.8655 61.8994 29.6873 62.0149C29.5189 62.1238 29.3853 62.2558 29.2863 62.411C29.1906 62.5661 29.1213 62.7393 29.0784 62.9308C29.0355 63.1189 29.014 63.3185 29.014 63.5298V66.2278H27.9694ZM33.5779 66.3763C33.0465 66.3763 32.5795 66.2608 32.1769 66.0298C31.7776 65.7954 31.4657 65.4704 31.2413 65.0545C31.0201 64.6354 30.9096 64.1502 30.9096 63.5991C30.9096 63.0149 31.0185 62.5083 31.2363 62.0793C31.4574 61.6502 31.7644 61.3185 32.1571 61.0842C32.5498 60.8499 33.0069 60.7327 33.5284 60.7327C34.0729 60.7327 34.5366 60.8598 34.9195 61.1139C35.3023 61.3648 35.5878 61.7228 35.7759 62.1882C35.9673 62.6535 36.0432 63.2063 36.0036 63.8466H34.969V63.4704C34.9624 62.8499 34.8436 62.3912 34.6125 62.0941C34.3848 61.7971 34.0366 61.6486 33.568 61.6486C33.0498 61.6486 32.6604 61.8119 32.3997 62.1387C32.1389 62.4654 32.0086 62.9374 32.0086 63.5545C32.0086 64.142 32.1389 64.5974 32.3997 64.9209C32.6604 65.241 33.0366 65.4011 33.5284 65.4011C33.8518 65.4011 34.1307 65.3284 34.365 65.1832C34.6026 65.0347 34.7875 64.8235 34.9195 64.5496L35.9343 64.8713C35.7264 65.3499 35.4112 65.7212 34.9888 65.9852C34.5663 66.2459 34.096 66.3763 33.5779 66.3763ZM31.6719 63.8466V63.0397H35.4888V63.8466H31.6719ZM38.0325 66.3763C37.6364 66.3763 37.3048 66.3037 37.0374 66.1585C36.7701 66.01 36.5671 65.8152 36.4285 65.5743C36.2932 65.3301 36.2255 65.0628 36.2255 64.7723C36.2255 64.5017 36.2734 64.2641 36.3691 64.0595C36.4648 63.8548 36.6067 63.6816 36.7949 63.5397C36.983 63.3945 37.214 63.2773 37.4879 63.1882C37.7255 63.1189 37.9945 63.0578 38.2949 63.005C38.5952 62.9522 38.9104 62.9027 39.2404 62.8565C39.5737 62.8103 39.9038 62.7641 40.2305 62.7179L39.8543 62.9258C39.8609 62.5067 39.7717 62.1964 39.5869 61.9951C39.4054 61.7905 39.0919 61.6882 38.6463 61.6882C38.3658 61.6882 38.1084 61.7542 37.8741 61.8862C37.6397 62.0149 37.4764 62.2294 37.384 62.5298L36.4186 62.2327C36.5506 61.774 36.8015 61.4093 37.1711 61.1387C37.544 60.8681 38.0391 60.7327 38.6562 60.7327C39.1348 60.7327 39.5506 60.8152 39.9038 60.9803C40.2602 61.142 40.5209 61.3994 40.6859 61.7525C40.7717 61.9275 40.8246 62.1123 40.8444 62.307C40.8642 62.5017 40.8741 62.7113 40.8741 62.9357V66.2278H39.9582V65.005L40.1364 65.1634C39.9153 65.5727 39.6331 65.8779 39.2899 66.0793C38.95 66.2773 38.5308 66.3763 38.0325 66.3763ZM38.2156 65.5298C38.5094 65.5298 38.7618 65.4786 38.9731 65.3763C39.1843 65.2707 39.3543 65.137 39.483 64.9753C39.6117 64.8136 39.6958 64.6453 39.7354 64.4704C39.7916 64.3119 39.8229 64.1337 39.8295 63.9357C39.8394 63.7377 39.8444 63.5793 39.8444 63.4605L40.181 63.5842C39.8543 63.6337 39.5572 63.6783 39.2899 63.7179C39.0226 63.7575 38.78 63.7971 38.5622 63.8367C38.3477 63.873 38.1562 63.9176 37.9879 63.9704C37.846 64.0199 37.7189 64.0793 37.6067 64.1486C37.4978 64.2179 37.4104 64.302 37.3444 64.4011C37.2817 64.5001 37.2503 64.6205 37.2503 64.7624C37.2503 64.9011 37.285 65.0298 37.3543 65.1486C37.4236 65.2641 37.5292 65.3565 37.6711 65.4258C37.813 65.4951 37.9945 65.5298 38.2156 65.5298ZM48.0704 66.2278L48.0754 62.8961C48.0754 62.51 47.9764 62.2096 47.7784 61.9951C47.5803 61.7773 47.3196 61.6684 46.9962 61.6684C46.7982 61.6684 46.6167 61.7146 46.4516 61.807C46.2899 61.8961 46.1579 62.0314 46.0556 62.2129C45.9566 62.3912 45.9071 62.6156 45.9071 62.8862L45.4071 62.6337C45.4005 62.2575 45.4797 61.9275 45.6447 61.6436C45.813 61.3598 46.0407 61.1403 46.3279 60.9852C46.615 60.8268 46.9368 60.7476 47.2932 60.7476C47.8708 60.7476 48.318 60.9209 48.6348 61.2674C48.9516 61.6139 49.11 62.0743 49.11 62.6486L49.1051 66.2278H48.0704ZM41.6596 66.2278V60.8813H42.5804V62.4258H42.6992V66.2278H41.6596ZM44.8675 66.2278L44.8724 62.9159C44.8724 62.5265 44.7734 62.2212 44.5754 62.0001C44.3807 61.7789 44.1183 61.6684 43.7883 61.6684C43.4615 61.6684 43.1975 61.7806 42.9962 62.005C42.7982 62.2294 42.6992 62.5232 42.6992 62.8862L42.2041 62.5694C42.2041 62.2195 42.2883 61.9077 42.4566 61.6337C42.6249 61.3598 42.8526 61.1436 43.1398 60.9852C43.4269 60.8268 43.752 60.7476 44.115 60.7476C44.4945 60.7476 44.818 60.8284 45.0853 60.9902C45.3526 61.1486 45.5556 61.3714 45.6942 61.6585C45.8361 61.9456 45.9071 62.2789 45.9071 62.6585L45.9021 66.2278H44.8675ZM49.9995 66.2278V58.9506H51.0342V66.2278H49.9995ZM52.1247 60.005V59.0001H53.1594V60.005H52.1247ZM52.1247 66.2278V60.8813H53.1594V66.2278H52.1247ZM57.9034 66.2278V63.5991C57.9034 63.3912 57.8853 63.1783 57.849 62.9605C57.816 62.7393 57.75 62.5347 57.651 62.3466C57.5552 62.1585 57.4183 62.0067 57.2401 61.8912C57.0652 61.7756 56.8358 61.7179 56.5519 61.7179C56.3671 61.7179 56.1922 61.7492 56.0272 61.8119C55.8622 61.8714 55.717 61.9687 55.5916 62.104C55.4694 62.2393 55.3721 62.4176 55.2995 62.6387C55.2302 62.8598 55.1955 63.1288 55.1955 63.4456L54.552 63.203C54.552 62.7179 54.6427 62.2905 54.8242 61.9209C55.0057 61.5479 55.2665 61.2575 55.6064 61.0496C55.9463 60.8416 56.3572 60.7377 56.8391 60.7377C57.2087 60.7377 57.5189 60.7971 57.7698 60.9159C58.0206 61.0347 58.2236 61.1915 58.3787 61.3862C58.5371 61.5776 58.6576 61.7872 58.7401 62.0149C58.8226 62.2426 58.8787 62.4654 58.9084 62.6832C58.9381 62.9011 58.9529 63.0925 58.9529 63.2575V66.2278H57.9034ZM54.146 66.2278V60.8813H55.0718V62.4258H55.1955V66.2278H54.146ZM62.0509 66.3763C61.5196 66.3763 61.0526 66.2608 60.65 66.0298C60.2506 65.7954 59.9387 65.4704 59.7143 65.0545C59.4932 64.6354 59.3826 64.1502 59.3826 63.5991C59.3826 63.0149 59.4915 62.5083 59.7094 62.0793C59.9305 61.6502 60.2374 61.3185 60.6302 61.0842C61.0229 60.8499 61.48 60.7327 62.0014 60.7327C62.546 60.7327 63.0097 60.8598 63.3925 61.1139C63.7754 61.3648 64.0608 61.7228 64.249 62.1882C64.4404 62.6535 64.5163 63.2063 64.4767 63.8466H63.442V63.4704C63.4354 62.8499 63.3166 62.3912 63.0856 62.0941C62.8579 61.7971 62.5097 61.6486 62.041 61.6486C61.5229 61.6486 61.1335 61.8119 60.8727 62.1387C60.612 62.4654 60.4816 62.9374 60.4816 63.5545C60.4816 64.142 60.612 64.5974 60.8727 64.9209C61.1335 65.241 61.5097 65.4011 62.0014 65.4011C62.3249 65.4011 62.6037 65.3284 62.8381 65.1832C63.0757 65.0347 63.2605 64.8235 63.3925 64.5496L64.4074 64.8713C64.1995 65.3499 63.8843 65.7212 63.4618 65.9852C63.0394 66.2459 62.5691 66.3763 62.0509 66.3763ZM60.145 63.8466V63.0397H63.9618V63.8466H60.145ZM67.2161 66.3763C66.7177 66.3763 66.287 66.2525 65.924 66.005C65.5643 65.7575 65.2854 65.4209 65.0874 64.9951C64.8926 64.5661 64.7953 64.0842 64.7953 63.5496C64.7953 63.0116 64.8943 62.5314 65.0923 62.109C65.2903 61.6832 65.5709 61.3483 65.9339 61.104C66.3002 60.8565 66.7342 60.7327 67.2359 60.7327C67.7408 60.7327 68.1649 60.8565 68.5082 61.104C68.8547 61.3483 69.1154 61.6832 69.2903 62.109C69.4686 62.5347 69.5577 63.0149 69.5577 63.5496C69.5577 64.0842 69.4686 64.5644 69.2903 64.9902C69.1121 65.4159 68.8497 65.7542 68.5032 66.005C68.1567 66.2525 67.7276 66.3763 67.2161 66.3763ZM67.3596 65.4407C67.6996 65.4407 67.9768 65.3598 68.1913 65.1981C68.4058 65.0364 68.5626 64.8136 68.6616 64.5298C68.7606 64.2459 68.8101 63.9192 68.8101 63.5496C68.8101 63.1799 68.759 62.8532 68.6567 62.5694C68.5577 62.2855 68.4025 62.0644 68.1913 61.906C67.9834 61.7476 67.7177 61.6684 67.3943 61.6684C67.0511 61.6684 66.7689 61.7525 66.5478 61.9209C66.3266 62.0892 66.1616 62.3152 66.0527 62.5991C65.9471 62.8829 65.8943 63.1997 65.8943 63.5496C65.8943 63.9027 65.9471 64.2228 66.0527 64.51C66.1616 64.7938 66.3233 65.0199 66.5379 65.1882C66.7557 65.3565 67.0296 65.4407 67.3596 65.4407ZM68.8101 66.2278V62.3813H68.6913V59.0991H69.7309V66.2278H68.8101ZM74.6922 66.3763C74.1807 66.3763 73.7187 66.2888 73.3061 66.1139C72.8969 65.9357 72.5586 65.6832 72.2913 65.3565C72.0272 65.0265 71.8556 64.6354 71.7764 64.1832L72.8556 64.0199C72.9645 64.4555 73.1922 64.7954 73.5388 65.0397C73.8853 65.2806 74.2896 65.4011 74.7517 65.4011C75.0388 65.4011 75.3028 65.3565 75.5437 65.2674C75.7847 65.175 75.9777 65.0446 76.1229 64.8763C76.2715 64.7047 76.3457 64.5001 76.3457 64.2624C76.3457 64.1337 76.3226 64.0199 76.2764 63.9209C76.2335 63.8218 76.1724 63.736 76.0932 63.6634C76.0173 63.5875 75.9233 63.5232 75.8111 63.4704C75.7021 63.4143 75.5817 63.3664 75.4497 63.3268L73.6229 62.7872C73.4447 62.7344 73.2632 62.6667 73.0784 62.5842C72.8936 62.4984 72.7236 62.3879 72.5685 62.2525C72.4167 62.1139 72.2929 61.944 72.1972 61.7426C72.1015 61.538 72.0536 61.2905 72.0536 61.0001C72.0536 60.5611 72.1658 60.1898 72.3903 59.8862C72.618 59.5793 72.9249 59.3483 73.3111 59.1931C73.6972 59.0347 74.1295 58.9555 74.6081 58.9555C75.0899 58.9621 75.5206 59.0479 75.9002 59.2129C76.283 59.378 76.5998 59.6156 76.8507 59.9258C77.1048 60.2327 77.2797 60.6057 77.3754 61.0446L76.2665 61.2327C76.217 60.9654 76.1114 60.736 75.9497 60.5446C75.788 60.3499 75.5899 60.2014 75.3556 60.0991C75.1213 59.9935 74.8672 59.939 74.5932 59.9357C74.3292 59.9291 74.0866 59.9687 73.8655 60.0545C73.6477 60.1403 73.4728 60.2608 73.3408 60.4159C73.2121 60.571 73.1477 60.7492 73.1477 60.9506C73.1477 61.1486 73.2055 61.3086 73.321 61.4308C73.4365 61.5529 73.5784 61.6502 73.7467 61.7228C73.9183 61.7921 74.0883 61.8499 74.2566 61.8961L75.5734 62.2674C75.7385 62.3136 75.9249 62.3763 76.1328 62.4555C76.3441 62.5314 76.547 62.6387 76.7418 62.7773C76.9398 62.9159 77.1031 63.1007 77.2318 63.3317C77.3606 63.5595 77.4249 63.8466 77.4249 64.1931C77.4249 64.5529 77.3523 64.8697 77.2071 65.1436C77.0619 65.4143 76.8622 65.642 76.6081 65.8268C76.3573 66.0083 76.0668 66.1453 75.7368 66.2377C75.4068 66.3301 75.0586 66.3763 74.6922 66.3763ZM80.3066 66.3763C79.772 66.3763 79.3083 66.2558 78.9156 66.0149C78.5228 65.774 78.2192 65.4423 78.0047 65.0199C77.7934 64.5941 77.6878 64.104 77.6878 63.5496C77.6878 62.9918 77.7967 62.5017 78.0146 62.0793C78.2324 61.6535 78.5377 61.3235 78.9304 61.0892C79.3231 60.8516 79.7819 60.7327 80.3066 60.7327C80.8413 60.7327 81.305 60.8532 81.6977 61.0941C82.0905 61.335 82.3941 61.6667 82.6086 62.0892C82.8231 62.5116 82.9304 62.9984 82.9304 63.5496C82.9304 64.1073 82.8215 64.5991 82.6037 65.0248C82.3891 65.4473 82.0855 65.7789 81.6928 66.0199C81.3 66.2575 80.838 66.3763 80.3066 66.3763ZM80.3066 65.4011C80.8182 65.4011 81.1994 65.2294 81.4502 64.8862C81.7043 64.5397 81.8314 64.0941 81.8314 63.5496C81.8314 62.9918 81.7027 62.5463 81.4453 62.2129C81.1911 61.8763 80.8116 61.708 80.3066 61.708C79.9601 61.708 79.6746 61.7872 79.4502 61.9456C79.2258 62.1007 79.0591 62.3169 78.9502 62.5941C78.8413 62.8681 78.7868 63.1865 78.7868 63.5496C78.7868 64.1106 78.9156 64.5595 79.173 64.8961C79.4304 65.2327 79.8083 65.4011 80.3066 65.4011ZM83.6222 66.2278V58.9506H84.6569V66.2278H83.6222ZM87.6633 66.3713C87.2937 66.3713 86.9834 66.3119 86.7326 66.1931C86.4818 66.0743 86.2772 65.9192 86.1187 65.7278C85.9636 65.5331 85.8448 65.3218 85.7623 65.0941C85.6798 64.8664 85.6237 64.6436 85.594 64.4258C85.5643 64.208 85.5494 64.0166 85.5494 63.8515V60.8813H86.5989V63.51C86.5989 63.7179 86.6154 63.9324 86.6485 64.1535C86.6848 64.3713 86.7508 64.5743 86.8465 64.7624C86.9455 64.9506 87.0824 65.1024 87.2574 65.2179C87.4356 65.3334 87.6666 65.3912 87.9504 65.3912C88.1352 65.3912 88.3102 65.3614 88.4752 65.302C88.6402 65.2393 88.7838 65.1403 88.9059 65.005C89.0313 64.8697 89.1286 64.6915 89.198 64.4704C89.2706 64.2492 89.3069 63.9803 89.3069 63.6634L89.9504 63.906C89.9504 64.3912 89.8597 64.8202 89.6782 65.1931C89.4966 65.5628 89.2359 65.8515 88.896 66.0595C88.556 66.2674 88.1451 66.3713 87.6633 66.3713ZM89.4306 66.2278V64.6832H89.3069V60.8813H90.3514V66.2278H89.4306ZM94.3042 66.2278C93.9676 66.2938 93.6376 66.3218 93.3141 66.3119C92.9907 66.302 92.7019 66.2393 92.4478 66.1238C92.1937 66.0083 92.0023 65.8268 91.8735 65.5793C91.758 65.3581 91.6953 65.1337 91.6854 64.906C91.6788 64.675 91.6755 64.4143 91.6755 64.1238V59.3961H92.7151V64.0743C92.7151 64.2888 92.7168 64.4753 92.7201 64.6337C92.7267 64.7921 92.7613 64.9258 92.824 65.0347C92.9428 65.2393 93.131 65.3565 93.3884 65.3862C93.6491 65.4126 93.9544 65.4011 94.3042 65.3515V66.2278ZM90.6508 61.7129V60.8813H94.3042V61.7129H90.6508ZM95.0354 60.005V59.0001H96.0701V60.005H95.0354ZM95.0354 66.2278V60.8813H96.0701V66.2278H95.0354ZM99.3834 66.3763C98.8488 66.3763 98.3851 66.2558 97.9923 66.0149C97.5996 65.774 97.296 65.4423 97.0815 65.0199C96.8702 64.5941 96.7646 64.104 96.7646 63.5496C96.7646 62.9918 96.8735 62.5017 97.0914 62.0793C97.3092 61.6535 97.6145 61.3235 98.0072 61.0892C98.3999 60.8516 98.8587 60.7327 99.3834 60.7327C99.9181 60.7327 100.382 60.8532 100.775 61.0941C101.167 61.335 101.471 61.6667 101.685 62.0892C101.9 62.5116 102.007 62.9984 102.007 63.5496C102.007 64.1073 101.898 64.5991 101.68 65.0248C101.466 65.4473 101.162 65.7789 100.77 66.0199C100.377 66.2575 99.9148 66.3763 99.3834 66.3763ZM99.3834 65.4011C99.895 65.4011 100.276 65.2294 100.527 64.8862C100.781 64.5397 100.908 64.0941 100.908 63.5496C100.908 62.9918 100.779 62.5463 100.522 62.2129C100.268 61.8763 99.8884 61.708 99.3834 61.708C99.0369 61.708 98.7514 61.7872 98.527 61.9456C98.3026 62.1007 98.1359 62.3169 98.027 62.5941C97.9181 62.8681 97.8636 63.1865 97.8636 63.5496C97.8636 64.1106 97.9923 64.5595 98.2498 64.8961C98.5072 65.2327 98.8851 65.4011 99.3834 65.4011ZM106.352 66.2278V63.5991C106.352 63.3912 106.334 63.1783 106.298 62.9605C106.265 62.7393 106.199 62.5347 106.1 62.3466C106.004 62.1585 105.867 62.0067 105.689 61.8912C105.514 61.7756 105.285 61.7179 105.001 61.7179C104.816 61.7179 104.641 61.7492 104.476 61.8119C104.311 61.8714 104.166 61.9687 104.041 62.104C103.918 62.2393 103.821 62.4176 103.749 62.6387C103.679 62.8598 103.645 63.1288 103.645 63.4456L103.001 63.203C103.001 62.7179 103.092 62.2905 103.273 61.9209C103.455 61.5479 103.716 61.2575 104.055 61.0496C104.395 60.8416 104.806 60.7377 105.288 60.7377C105.658 60.7377 105.968 60.7971 106.219 60.9159C106.47 61.0347 106.673 61.1915 106.828 61.3862C106.986 61.5776 107.107 61.7872 107.189 62.0149C107.272 62.2426 107.328 62.4654 107.357 62.6832C107.387 62.9011 107.402 63.0925 107.402 63.2575V66.2278H106.352ZM102.595 66.2278V60.8813H103.521V62.4258H103.645V66.2278H102.595ZM110.241 66.3713C109.591 66.3713 109.061 66.2278 108.652 65.9407C108.243 65.6535 107.992 65.2492 107.899 64.7278L108.959 64.5644C109.025 64.8416 109.177 65.0611 109.414 65.2228C109.655 65.3812 109.954 65.4605 110.31 65.4605C110.634 65.4605 110.886 65.3945 111.068 65.2624C111.252 65.1304 111.345 64.9489 111.345 64.7179C111.345 64.5826 111.312 64.4737 111.246 64.3912C111.183 64.3053 111.05 64.2245 110.845 64.1486C110.64 64.0727 110.328 63.9786 109.909 63.8664C109.451 63.7476 109.086 63.6205 108.815 63.4852C108.548 63.3466 108.356 63.1865 108.241 63.005C108.129 62.8202 108.073 62.5974 108.073 62.3367C108.073 62.0133 108.158 61.7311 108.33 61.4902C108.502 61.2492 108.743 61.0628 109.053 60.9308C109.366 60.7987 109.733 60.7327 110.152 60.7327C110.561 60.7327 110.926 60.7971 111.246 60.9258C111.566 61.0545 111.825 61.2377 112.023 61.4753C112.221 61.7096 112.34 61.9852 112.38 62.302L111.32 62.4951C111.284 62.2377 111.163 62.0347 110.959 61.8862C110.754 61.7377 110.488 61.6568 110.162 61.6436C109.848 61.6304 109.594 61.6832 109.399 61.802C109.205 61.9176 109.107 62.0776 109.107 62.2822C109.107 62.4011 109.144 62.5017 109.216 62.5842C109.292 62.6667 109.437 62.7459 109.652 62.8218C109.866 62.8978 110.183 62.9885 110.602 63.0941C111.051 63.2096 111.408 63.3383 111.672 63.4803C111.936 63.6189 112.124 63.7855 112.236 63.9803C112.351 64.1717 112.409 64.4044 112.409 64.6783C112.409 65.2063 112.216 65.6205 111.83 65.9209C111.447 66.2212 110.918 66.3713 110.241 66.3713ZM114.987 66.2278V60.6931C114.987 60.5578 114.992 60.4143 115.002 60.2624C115.012 60.1073 115.04 59.9555 115.086 59.807C115.135 59.6552 115.216 59.5166 115.328 59.3912C115.464 59.2426 115.612 59.137 115.774 59.0743C115.936 59.0116 116.096 58.9753 116.254 58.9654C116.416 58.9555 116.564 58.9506 116.7 58.9506H117.373V59.802H116.749C116.505 59.802 116.322 59.8631 116.2 59.9852C116.081 60.104 116.021 60.274 116.021 60.4951V66.2278H114.987ZM114.101 61.7129V60.8813H117.373V61.7129H114.101ZM119.795 66.3763C119.26 66.3763 118.796 66.2558 118.403 66.0149C118.011 65.774 117.707 65.4423 117.493 65.0199C117.281 64.5941 117.176 64.104 117.176 63.5496C117.176 62.9918 117.285 62.5017 117.502 62.0793C117.72 61.6535 118.026 61.3235 118.418 61.0892C118.811 60.8516 119.27 60.7327 119.795 60.7327C120.329 60.7327 120.793 60.8532 121.186 61.0941C121.578 61.335 121.882 61.6667 122.097 62.0892C122.311 62.5116 122.418 62.9984 122.418 63.5496C122.418 64.1073 122.309 64.5991 122.092 65.0248C121.877 65.4473 121.573 65.7789 121.181 66.0199C120.788 66.2575 120.326 66.3763 119.795 66.3763ZM119.795 65.4011C120.306 65.4011 120.687 65.2294 120.938 64.8862C121.192 64.5397 121.319 64.0941 121.319 63.5496C121.319 62.9918 121.191 62.5463 120.933 62.2129C120.679 61.8763 120.299 61.708 119.795 61.708C119.448 61.708 119.163 61.7872 118.938 61.9456C118.714 62.1007 118.547 62.3169 118.438 62.5941C118.329 62.8681 118.275 63.1865 118.275 63.5496C118.275 64.1106 118.403 64.5595 118.661 64.8961C118.918 65.2327 119.296 65.4011 119.795 65.4011ZM123.011 66.2278V60.8813H123.932V62.1783L123.803 62.01C123.869 61.8383 123.955 61.6816 124.061 61.5397C124.166 61.3945 124.288 61.2756 124.427 61.1832C124.562 61.0842 124.712 61.0083 124.877 60.9555C125.046 60.8994 125.217 60.8664 125.392 60.8565C125.567 60.8433 125.736 60.8516 125.897 60.8813V61.8515C125.722 61.8053 125.528 61.7921 125.313 61.8119C125.102 61.8317 124.907 61.8994 124.729 62.0149C124.561 62.1238 124.427 62.2558 124.328 62.411C124.232 62.5661 124.163 62.7393 124.12 62.9308C124.077 63.1189 124.056 63.3185 124.056 63.5298V66.2278H123.011ZM127.832 66.2278V59.0991H130.713C130.783 59.0991 130.868 59.1024 130.971 59.109C131.073 59.1123 131.17 59.1222 131.263 59.1387C131.659 59.2014 131.989 59.3367 132.253 59.5446C132.52 59.7525 132.72 60.0149 132.852 60.3317C132.984 60.6486 133.05 60.9984 133.05 61.3813C133.05 61.9489 132.905 62.439 132.614 62.8515C132.324 63.2608 131.888 63.5166 131.307 63.6189L130.886 63.6684H128.867V66.2278H127.832ZM132 66.2278L130.594 63.3268L131.639 63.0595L133.184 66.2278H132ZM128.867 62.6882H130.674C130.74 62.6882 130.812 62.6849 130.891 62.6783C130.974 62.6717 131.052 62.6601 131.124 62.6436C131.335 62.5941 131.505 62.5034 131.634 62.3714C131.763 62.236 131.855 62.0809 131.911 61.906C131.967 61.7311 131.995 61.5562 131.995 61.3813C131.995 61.2063 131.967 61.0331 131.911 60.8615C131.855 60.6865 131.763 60.5331 131.634 60.4011C131.505 60.2657 131.335 60.1733 131.124 60.1238C131.052 60.104 130.974 60.0908 130.891 60.0842C130.812 60.0776 130.74 60.0743 130.674 60.0743H128.867V62.6882ZM136.148 66.3763C135.616 66.3763 135.149 66.2608 134.747 66.0298C134.347 65.7954 134.036 65.4704 133.811 65.0545C133.59 64.6354 133.479 64.1502 133.479 63.5991C133.479 63.0149 133.588 62.5083 133.806 62.0793C134.027 61.6502 134.334 61.3185 134.727 61.0842C135.12 60.8499 135.577 60.7327 136.098 60.7327C136.643 60.7327 137.107 60.8598 137.489 61.1139C137.872 61.3648 138.158 61.7228 138.346 62.1882C138.537 62.6535 138.613 63.2063 138.574 63.8466H137.539V63.4704C137.532 62.8499 137.413 62.3912 137.182 62.0941C136.955 61.7971 136.607 61.6486 136.138 61.6486C135.62 61.6486 135.23 61.8119 134.97 62.1387C134.709 62.4654 134.578 62.9374 134.578 63.5545C134.578 64.142 134.709 64.5974 134.97 64.9209C135.23 65.241 135.607 65.4011 136.098 65.4011C136.422 65.4011 136.701 65.3284 136.935 65.1832C137.173 65.0347 137.357 64.8235 137.489 64.5496L138.504 64.8713C138.296 65.3499 137.981 65.7212 137.559 65.9852C137.136 66.2459 136.666 66.3763 136.148 66.3763ZM134.242 63.8466V63.0397H138.059V63.8466H134.242ZM141.234 66.3713C140.584 66.3713 140.054 66.2278 139.645 65.9407C139.235 65.6535 138.985 65.2492 138.892 64.7278L139.952 64.5644C140.018 64.8416 140.169 65.0611 140.407 65.2228C140.648 65.3812 140.947 65.4605 141.303 65.4605C141.626 65.4605 141.879 65.3945 142.06 65.2624C142.245 65.1304 142.338 64.9489 142.338 64.7179C142.338 64.5826 142.305 64.4737 142.239 64.3912C142.176 64.3053 142.042 64.2245 141.838 64.1486C141.633 64.0727 141.321 63.9786 140.902 63.8664C140.443 63.7476 140.079 63.6205 139.808 63.4852C139.541 63.3466 139.349 63.1865 139.234 63.005C139.122 62.8202 139.065 62.5974 139.065 62.3367C139.065 62.0133 139.151 61.7311 139.323 61.4902C139.494 61.2492 139.735 61.0628 140.046 60.9308C140.359 60.7987 140.725 60.7327 141.145 60.7327C141.554 60.7327 141.919 60.7971 142.239 60.9258C142.559 61.0545 142.818 61.2377 143.016 61.4753C143.214 61.7096 143.333 61.9852 143.372 62.302L142.313 62.4951C142.277 62.2377 142.156 62.0347 141.952 61.8862C141.747 61.7377 141.481 61.6568 141.155 61.6436C140.841 61.6304 140.587 61.6832 140.392 61.802C140.197 61.9176 140.1 62.0776 140.1 62.2822C140.1 62.4011 140.136 62.5017 140.209 62.5842C140.285 62.6667 140.43 62.7459 140.645 62.8218C140.859 62.8978 141.176 62.9885 141.595 63.0941C142.044 63.2096 142.4 63.3383 142.664 63.4803C142.928 63.6189 143.117 63.7855 143.229 63.9803C143.344 64.1717 143.402 64.4044 143.402 64.6783C143.402 65.2063 143.209 65.6205 142.823 65.9209C142.44 66.2212 141.91 66.3713 141.234 66.3713ZM147.062 66.2278C146.725 66.2938 146.395 66.3218 146.072 66.3119C145.748 66.302 145.459 66.2393 145.205 66.1238C144.951 66.0083 144.76 65.8268 144.631 65.5793C144.516 65.3581 144.453 65.1337 144.443 64.906C144.436 64.675 144.433 64.4143 144.433 64.1238V59.3961H145.473V64.0743C145.473 64.2888 145.474 64.4753 145.478 64.6337C145.484 64.7921 145.519 64.9258 145.582 65.0347C145.7 65.2393 145.888 65.3565 146.146 65.3862C146.407 65.4126 146.712 65.4011 147.062 65.3515V66.2278ZM143.408 61.7129V60.8813H147.062V61.7129H143.408ZM149.204 66.3763C148.808 66.3763 148.476 66.3037 148.209 66.1585C147.941 66.01 147.739 65.8152 147.6 65.5743C147.465 65.3301 147.397 65.0628 147.397 64.7723C147.397 64.5017 147.445 64.2641 147.54 64.0595C147.636 63.8548 147.778 63.6816 147.966 63.5397C148.154 63.3945 148.385 63.2773 148.659 63.1882C148.897 63.1189 149.166 63.0578 149.466 63.005C149.767 62.9522 150.082 62.9027 150.412 62.8565C150.745 62.8103 151.075 62.7641 151.402 62.7179L151.026 62.9258C151.032 62.5067 150.943 62.1964 150.758 61.9951C150.577 61.7905 150.263 61.6882 149.818 61.6882C149.537 61.6882 149.28 61.7542 149.045 61.8862C148.811 62.0149 148.648 62.2294 148.555 62.5298L147.59 62.2327C147.722 61.774 147.973 61.4093 148.342 61.1387C148.715 60.8681 149.21 60.7327 149.828 60.7327C150.306 60.7327 150.722 60.8152 151.075 60.9803C151.432 61.142 151.692 61.3994 151.857 61.7525C151.943 61.9275 151.996 62.1123 152.016 62.307C152.036 62.5017 152.045 62.7113 152.045 62.9357V66.2278H151.13V65.005L151.308 65.1634C151.087 65.5727 150.805 65.8779 150.461 66.0793C150.121 66.2773 149.702 66.3763 149.204 66.3763ZM149.387 65.5298C149.681 65.5298 149.933 65.4786 150.144 65.3763C150.356 65.2707 150.526 65.137 150.654 64.9753C150.783 64.8136 150.867 64.6453 150.907 64.4704C150.963 64.3119 150.994 64.1337 151.001 63.9357C151.011 63.7377 151.016 63.5793 151.016 63.4605L151.352 63.5842C151.026 63.6337 150.729 63.6783 150.461 63.7179C150.194 63.7575 149.951 63.7971 149.734 63.8367C149.519 63.873 149.328 63.9176 149.159 63.9704C149.017 64.0199 148.89 64.0793 148.778 64.1486C148.669 64.2179 148.582 64.302 148.516 64.4011C148.453 64.5001 148.422 64.6205 148.422 64.7624C148.422 64.9011 148.456 65.0298 148.526 65.1486C148.595 65.2641 148.701 65.3565 148.842 65.4258C148.984 65.4951 149.166 65.5298 149.387 65.5298ZM154.851 66.3713C154.481 66.3713 154.171 66.3119 153.92 66.1931C153.669 66.0743 153.465 65.9192 153.306 65.7278C153.151 65.5331 153.032 65.3218 152.95 65.0941C152.867 64.8664 152.811 64.6436 152.781 64.4258C152.752 64.208 152.737 64.0166 152.737 63.8515V60.8813H153.786V63.51C153.786 63.7179 153.803 63.9324 153.836 64.1535C153.872 64.3713 153.938 64.5743 154.034 64.7624C154.133 64.9506 154.27 65.1024 154.445 65.2179C154.623 65.3334 154.854 65.3912 155.138 65.3912C155.323 65.3912 155.498 65.3614 155.663 65.302C155.828 65.2393 155.971 65.1403 156.093 65.005C156.219 64.8697 156.316 64.6915 156.385 64.4704C156.458 64.2492 156.494 63.9803 156.494 63.6634L157.138 63.906C157.138 64.3912 157.047 64.8202 156.866 65.1931C156.684 65.5628 156.423 65.8515 156.083 66.0595C155.743 66.2674 155.333 66.3713 154.851 66.3713ZM156.618 66.2278V64.6832H156.494V60.8813H157.539V66.2278H156.618ZM158.432 66.2278V60.8813H159.353V62.1783L159.224 62.01C159.29 61.8383 159.376 61.6816 159.482 61.5397C159.587 61.3945 159.709 61.2756 159.848 61.1832C159.983 61.0842 160.134 61.0083 160.299 60.9555C160.467 60.8994 160.639 60.8664 160.813 60.8565C160.988 60.8433 161.157 60.8516 161.318 60.8813V61.8515C161.143 61.8053 160.949 61.7921 160.734 61.8119C160.523 61.8317 160.328 61.8994 160.15 62.0149C159.982 62.1238 159.848 62.2558 159.749 62.411C159.653 62.5661 159.584 62.7393 159.541 62.9308C159.498 63.1189 159.477 63.3185 159.477 63.5298V66.2278H158.432ZM163.131 66.3763C162.735 66.3763 162.403 66.3037 162.136 66.1585C161.869 66.01 161.666 65.8152 161.527 65.5743C161.392 65.3301 161.324 65.0628 161.324 64.7723C161.324 64.5017 161.372 64.2641 161.468 64.0595C161.563 63.8548 161.705 63.6816 161.893 63.5397C162.081 63.3945 162.312 63.2773 162.586 63.1882C162.824 63.1189 163.093 63.0578 163.393 63.005C163.694 62.9522 164.009 62.9027 164.339 62.8565C164.672 62.8103 165.002 62.7641 165.329 62.7179L164.953 62.9258C164.959 62.5067 164.87 62.1964 164.685 61.9951C164.504 61.7905 164.19 61.6882 163.745 61.6882C163.464 61.6882 163.207 61.7542 162.973 61.8862C162.738 62.0149 162.575 62.2294 162.482 62.5298L161.517 62.2327C161.649 61.774 161.9 61.4093 162.27 61.1387C162.643 60.8681 163.138 60.7327 163.755 60.7327C164.233 60.7327 164.649 60.8152 165.002 60.9803C165.359 61.142 165.619 61.3994 165.784 61.7525C165.87 61.9275 165.923 62.1123 165.943 62.307C165.963 62.5017 165.973 62.7113 165.973 62.9357V66.2278H165.057V65.005L165.235 65.1634C165.014 65.5727 164.732 65.8779 164.388 66.0793C164.048 66.2773 163.629 66.3763 163.131 66.3763ZM163.314 65.5298C163.608 65.5298 163.86 65.4786 164.072 65.3763C164.283 65.2707 164.453 65.137 164.581 64.9753C164.71 64.8136 164.794 64.6453 164.834 64.4704C164.89 64.3119 164.921 64.1337 164.928 63.9357C164.938 63.7377 164.943 63.5793 164.943 63.4605L165.279 63.5842C164.953 63.6337 164.656 63.6783 164.388 63.7179C164.121 63.7575 163.879 63.7971 163.661 63.8367C163.446 63.873 163.255 63.9176 163.086 63.9704C162.945 64.0199 162.817 64.0793 162.705 64.1486C162.596 64.2179 162.509 64.302 162.443 64.4011C162.38 64.5001 162.349 64.6205 162.349 64.7624C162.349 64.9011 162.383 65.0298 162.453 65.1486C162.522 65.2641 162.628 65.3565 162.77 65.4258C162.912 65.4951 163.093 65.5298 163.314 65.5298ZM170.515 66.2278V63.5991C170.515 63.3912 170.497 63.1783 170.461 62.9605C170.428 62.7393 170.362 62.5347 170.263 62.3466C170.167 62.1585 170.03 62.0067 169.852 61.8912C169.677 61.7756 169.448 61.7179 169.164 61.7179C168.979 61.7179 168.804 61.7492 168.639 61.8119C168.474 61.8714 168.329 61.9687 168.204 62.104C168.081 62.2393 167.984 62.4176 167.912 62.6387C167.842 62.8598 167.808 63.1288 167.808 63.4456L167.164 63.203C167.164 62.7179 167.255 62.2905 167.436 61.9209C167.618 61.5479 167.879 61.2575 168.218 61.0496C168.558 60.8416 168.969 60.7377 169.451 60.7377C169.821 60.7377 170.131 60.7971 170.382 60.9159C170.633 61.0347 170.836 61.1915 170.991 61.3862C171.149 61.5776 171.27 61.7872 171.352 62.0149C171.435 62.2426 171.491 62.4654 171.52 62.6832C171.55 62.9011 171.565 63.0925 171.565 63.2575V66.2278H170.515ZM166.758 66.2278V60.8813H167.684V62.4258H167.808V66.2278H166.758ZM175.419 66.2278C175.082 66.2938 174.752 66.3218 174.429 66.3119C174.105 66.302 173.816 66.2393 173.562 66.1238C173.308 66.0083 173.117 65.8268 172.988 65.5793C172.873 65.3581 172.81 65.1337 172.8 64.906C172.793 64.675 172.79 64.4143 172.79 64.1238V59.3961H173.83V64.0743C173.83 64.2888 173.831 64.4753 173.835 64.6337C173.841 64.7921 173.876 64.9258 173.939 65.0347C174.057 65.2393 174.246 65.3565 174.503 65.3862C174.764 65.4126 175.069 65.4011 175.419 65.3515V66.2278ZM171.765 61.7129V60.8813H175.419V61.7129H171.765ZM177.538 66.2278V59.0991H182.093V60.0743H178.573V62.0743H181.498V63.0496H178.573V65.2525H182.093V66.2278H177.538ZM182.192 66.2278L184.192 63.5248L182.237 60.8813H183.465L184.796 62.7179L186.113 60.8813H187.341L185.385 63.5248L187.39 66.2278H186.158L184.796 64.3317L183.425 66.2278H182.192ZM189.78 66.3763C189.232 66.3763 188.767 66.2542 188.384 66.01C188.001 65.7657 187.708 65.4308 187.503 65.005C187.302 64.5793 187.199 64.0958 187.196 63.5545C187.199 63.0034 187.305 62.5166 187.513 62.0941C187.721 61.6684 188.018 61.335 188.404 61.0941C188.79 60.8532 189.254 60.7327 189.795 60.7327C190.379 60.7327 190.878 60.878 191.29 61.1684C191.706 61.4588 191.98 61.8565 192.112 62.3615L191.082 62.6585C190.98 62.3582 190.812 62.1255 190.577 61.9605C190.346 61.7921 190.081 61.708 189.78 61.708C189.44 61.708 189.161 61.7888 188.944 61.9506C188.726 62.109 188.564 62.3268 188.459 62.604C188.353 62.8813 188.298 63.1981 188.295 63.5545C188.298 64.1057 188.424 64.5512 188.671 64.8912C188.922 65.2311 189.292 65.4011 189.78 65.4011C190.114 65.4011 190.383 65.3251 190.587 65.1733C190.795 65.0182 190.954 64.7971 191.062 64.51L192.112 64.7575C191.937 65.2789 191.648 65.6799 191.246 65.9605C190.843 66.2377 190.355 66.3763 189.78 66.3763ZM194.852 66.3763C194.32 66.3763 193.853 66.2608 193.451 66.0298C193.051 65.7954 192.739 65.4704 192.515 65.0545C192.294 64.6354 192.183 64.1502 192.183 63.5991C192.183 63.0149 192.292 62.5083 192.51 62.0793C192.731 61.6502 193.038 61.3185 193.431 61.0842C193.824 60.8499 194.281 60.7327 194.802 60.7327C195.347 60.7327 195.81 60.8598 196.193 61.1139C196.576 61.3648 196.862 61.7228 197.05 62.1882C197.241 62.6535 197.317 63.2063 197.277 63.8466H196.243V63.4704C196.236 62.8499 196.117 62.3912 195.886 62.0941C195.659 61.7971 195.31 61.6486 194.842 61.6486C194.324 61.6486 193.934 61.8119 193.673 62.1387C193.413 62.4654 193.282 62.9374 193.282 63.5545C193.282 64.142 193.413 64.5974 193.673 64.9209C193.934 65.241 194.31 65.4011 194.802 65.4011C195.126 65.4011 195.405 65.3284 195.639 65.1832C195.876 65.0347 196.061 64.8235 196.193 64.5496L197.208 64.8713C197 65.3499 196.685 65.7212 196.263 65.9852C195.84 66.2459 195.37 66.3763 194.852 66.3763ZM192.946 63.8466V63.0397H196.763V63.8466H192.946ZM197.992 66.2278V58.9506H199.027V66.2278H197.992ZM200.117 66.2278V58.9506H201.152V66.2278H200.117ZM204.515 66.3763C203.983 66.3763 203.516 66.2608 203.114 66.0298C202.714 65.7954 202.403 65.4704 202.178 65.0545C201.957 64.6354 201.847 64.1502 201.847 63.5991C201.847 63.0149 201.955 62.5083 202.173 62.0793C202.394 61.6502 202.701 61.3185 203.094 61.0842C203.487 60.8499 203.944 60.7327 204.465 60.7327C205.01 60.7327 205.474 60.8598 205.856 61.1139C206.239 61.3648 206.525 61.7228 206.713 62.1882C206.904 62.6535 206.98 63.2063 206.941 63.8466H205.906V63.4704C205.899 62.8499 205.78 62.3912 205.549 62.0941C205.322 61.7971 204.974 61.6486 204.505 61.6486C203.987 61.6486 203.597 61.8119 203.337 62.1387C203.076 62.4654 202.946 62.9374 202.946 63.5545C202.946 64.142 203.076 64.5974 203.337 64.9209C203.597 65.241 203.974 65.4011 204.465 65.4011C204.789 65.4011 205.068 65.3284 205.302 65.1832C205.54 65.0347 205.724 64.8235 205.856 64.5496L206.871 64.8713C206.663 65.3499 206.348 65.7212 205.926 65.9852C205.503 66.2459 205.033 66.3763 204.515 66.3763ZM202.609 63.8466V63.0397H206.426V63.8466H202.609ZM211.164 66.2278V63.5991C211.164 63.3912 211.145 63.1783 211.109 62.9605C211.076 62.7393 211.01 62.5347 210.911 62.3466C210.815 62.1585 210.678 62.0067 210.5 61.8912C210.325 61.7756 210.096 61.7179 209.812 61.7179C209.627 61.7179 209.452 61.7492 209.287 61.8119C209.122 61.8714 208.977 61.9687 208.852 62.104C208.73 62.2393 208.632 62.4176 208.56 62.6387C208.49 62.8598 208.456 63.1288 208.456 63.4456L207.812 63.203C207.812 62.7179 207.903 62.2905 208.084 61.9209C208.266 61.5479 208.527 61.2575 208.867 61.0496C209.207 60.8416 209.617 60.7377 210.099 60.7377C210.469 60.7377 210.779 60.7971 211.03 60.9159C211.281 61.0347 211.484 61.1915 211.639 61.3862C211.797 61.5776 211.918 61.7872 212 62.0149C212.083 62.2426 212.139 62.4654 212.169 62.6832C212.198 62.9011 212.213 63.0925 212.213 63.2575V66.2278H211.164ZM207.406 66.2278V60.8813H208.332V62.4258H208.456V66.2278H207.406ZM215.227 66.3763C214.679 66.3763 214.214 66.2542 213.831 66.01C213.448 65.7657 213.154 65.4308 212.95 65.005C212.748 64.5793 212.646 64.0958 212.643 63.5545C212.646 63.0034 212.752 62.5166 212.96 62.0941C213.168 61.6684 213.465 61.335 213.851 61.0941C214.237 60.8532 214.701 60.7327 215.242 60.7327C215.826 60.7327 216.324 60.878 216.737 61.1684C217.153 61.4588 217.427 61.8565 217.559 62.3615L216.529 62.6585C216.427 62.3582 216.258 62.1255 216.024 61.9605C215.793 61.7921 215.527 61.708 215.227 61.708C214.887 61.708 214.608 61.7888 214.39 61.9506C214.173 62.109 214.011 62.3268 213.905 62.604C213.8 62.8813 213.745 63.1981 213.742 63.5545C213.745 64.1057 213.871 64.5512 214.118 64.8912C214.369 65.2311 214.739 65.4011 215.227 65.4011C215.56 65.4011 215.829 65.3251 216.034 65.1733C216.242 65.0182 216.4 64.7971 216.509 64.51L217.559 64.7575C217.384 65.2789 217.095 65.6799 216.692 65.9605C216.29 66.2377 215.801 66.3763 215.227 66.3763ZM220.298 66.3763C219.767 66.3763 219.3 66.2608 218.897 66.0298C218.498 65.7954 218.186 65.4704 217.962 65.0545C217.741 64.6354 217.63 64.1502 217.63 63.5991C217.63 63.0149 217.739 62.5083 217.957 62.0793C218.178 61.6502 218.485 61.3185 218.878 61.0842C219.27 60.8499 219.727 60.7327 220.249 60.7327C220.793 60.7327 221.257 60.8598 221.64 61.1139C222.023 61.3648 222.308 61.7228 222.496 62.1882C222.688 62.6535 222.764 63.2063 222.724 63.8466H221.689V63.4704C221.683 62.8499 221.564 62.3912 221.333 62.0941C221.105 61.7971 220.757 61.6486 220.288 61.6486C219.77 61.6486 219.381 61.8119 219.12 62.1387C218.859 62.4654 218.729 62.9374 218.729 63.5545C218.729 64.142 218.859 64.5974 219.12 64.9209C219.381 65.241 219.757 65.4011 220.249 65.4011C220.572 65.4011 220.851 65.3284 221.086 65.1832C221.323 65.0347 221.508 64.8235 221.64 64.5496L222.655 64.8713C222.447 65.3499 222.132 65.7212 221.709 65.9852C221.287 66.2459 220.817 66.3763 220.298 66.3763ZM218.392 63.8466V63.0397H222.209V63.8466H218.392Z"
        fill="#2D2D2D" />
</svg>