<svg width="242" height="48" viewBox="0 0 242 48" fill="none" xmlns="http://www.w3.org/2000/svg">
    <path
        d="M57.4276 25.4533L56.3819 24.3978C56.1572 24.171 55.7913 24.171 55.5666 24.3978L39.8024 40.309C30.7794 49.4161 16.0869 49.7214 6.9689 40.7132C-2.41991 31.4404 -2.32196 16.1311 7.26275 6.9775C16.0034 -1.36774 30.6469 -1.28341 39.2953 7.15778C40.2719 8.11152 41.1477 9.12924 41.9227 10.1964C43.922 12.9558 43.5878 16.7853 41.1938 19.2017L36.982 23.4528L29.8172 30.6815C28.1204 32.3941 25.7753 33.4555 23.1854 33.4555C20.5955 33.4555 18.2533 32.3941 16.5536 30.6815L23.1854 23.9878L29.8172 17.2942L32.531 14.5551C32.7644 14.3196 32.7528 13.9357 32.5108 13.7118C27.0919 8.69889 18.6711 8.83846 13.4221 14.1335C8.03195 19.5768 8.03195 28.3989 13.4221 33.8422C15.9832 36.4272 19.2991 37.7822 22.6553 37.913C26.363 38.0555 30.1139 36.7005 32.9459 33.8422H32.9487C32.9775 33.8131 33.0064 33.784 33.0323 33.755L46.1201 20.548L48.9377 17.7042C49.1624 17.4774 49.1624 17.1081 48.9377 16.8813L47.8919 15.8258C47.5289 15.4594 47.7882 14.8313 48.3039 14.8342L57.7935 14.8866C58.1104 14.8866 58.3639 15.1454 58.3668 15.4652L58.4158 25.0404C58.4158 25.5609 57.7964 25.8226 57.4334 25.4533H57.4276Z"
        fill="#6959D2" />
    <path
        d="M71.965 46.5397L59.6705 12.6673H68.2014L76.2304 36.1271L84.2594 12.6673H92.7902L80.4958 46.5397H71.965ZM109.841 47.4806C106.37 47.4806 103.307 46.7383 100.652 45.2538C98.0171 43.7483 95.9471 41.6888 94.4417 39.0752C92.9571 36.4407 92.2149 33.4298 92.2149 30.0426C92.2149 26.3417 92.9467 23.1217 94.4103 20.3827C95.8739 17.6436 97.8916 15.5214 100.463 14.0159C103.035 12.4896 105.994 11.7264 109.339 11.7264C112.894 11.7264 115.915 12.5628 118.403 14.2355C120.891 15.9082 122.731 18.2604 123.923 21.2922C125.115 24.324 125.533 27.889 125.178 31.9871H116.741V28.8508C116.741 25.4008 116.187 22.9231 115.079 21.4177C113.991 19.8913 112.204 19.1282 109.716 19.1282C106.809 19.1282 104.666 20.0168 103.286 21.794C101.927 23.5504 101.247 26.1535 101.247 29.6035C101.247 32.7607 101.927 35.2071 103.286 36.9425C104.666 38.657 106.684 39.5143 109.339 39.5143C111.012 39.5143 112.444 39.1484 113.636 38.4166C114.828 37.6848 115.737 36.6289 116.365 35.2489L124.895 37.6952C123.62 40.7897 121.602 43.1943 118.842 44.9088C116.103 46.6233 113.103 47.4806 109.841 47.4806ZM98.613 31.9871V25.6517H121.069V31.9871H98.613ZM129.123 46.5397V12.6673H136.65V20.9472L135.835 19.8809C136.274 18.71 136.859 17.6436 137.591 16.6818C138.323 15.72 139.222 14.9255 140.288 14.2982C141.104 13.7964 141.992 13.4096 142.954 13.1378C143.916 12.845 144.909 12.6673 145.934 12.6046C146.958 12.521 147.983 12.5419 149.007 12.6673V20.6336C148.067 20.3409 146.969 20.2468 145.714 20.3513C144.481 20.435 143.362 20.7172 142.358 21.1981C141.355 21.6581 140.508 22.2749 139.818 23.0486C139.128 23.8013 138.605 24.7004 138.25 25.7458C137.894 26.7703 137.717 27.9308 137.717 29.2271V46.5397H129.123ZM166.969 47.4806C163.498 47.4806 160.435 46.7383 157.779 45.2538C155.145 43.7483 153.075 41.6888 151.569 39.0752C150.085 36.4407 149.343 33.4298 149.343 30.0426C149.343 26.3417 150.074 23.1217 151.538 20.3827C153.002 17.6436 155.019 15.5214 157.591 14.0159C160.163 12.4896 163.122 11.7264 166.467 11.7264C170.021 11.7264 173.043 12.5628 175.531 14.2355C178.019 15.9082 179.859 18.2604 181.051 21.2922C182.243 24.324 182.661 27.889 182.305 31.9871H173.869V28.8508C173.869 25.4008 173.315 22.9231 172.206 21.4177C171.119 19.8913 169.331 19.1282 166.843 19.1282C163.937 19.1282 161.794 20.0168 160.414 21.794C159.055 23.5504 158.375 26.1535 158.375 29.6035C158.375 32.7607 159.055 35.2071 160.414 36.9425C161.794 38.657 163.812 39.5143 166.467 39.5143C168.14 39.5143 169.572 39.1484 170.764 38.4166C171.956 37.6848 172.865 36.6289 173.492 35.2489L182.023 37.6952C180.748 40.7897 178.73 43.1943 175.97 44.9088C173.231 46.6233 170.231 47.4806 166.969 47.4806ZM155.741 31.9871V25.6517H178.197V31.9871H155.741ZM199.486 47.4806C195.221 47.4806 191.771 46.5188 189.136 44.5951C186.523 42.6506 184.934 39.9116 184.369 36.378L193.088 35.0607C193.443 36.6498 194.228 37.8939 195.44 38.7929C196.674 39.692 198.232 40.1416 200.113 40.1416C201.661 40.1416 202.852 39.8488 203.689 39.2634C204.525 38.657 204.943 37.8207 204.943 36.7543C204.943 36.0852 204.776 35.5521 204.442 35.1548C204.107 34.7366 203.354 34.3289 202.183 33.9316C201.033 33.5344 199.235 33.0116 196.789 32.3635C194.029 31.6526 191.823 30.858 190.171 29.9799C188.519 29.1017 187.328 28.0562 186.596 26.8435C185.864 25.6099 185.498 24.1254 185.498 22.3899C185.498 20.2154 186.052 18.3336 187.16 16.7445C188.269 15.1346 189.826 13.9009 191.833 13.0437C193.862 12.1655 196.245 11.7264 198.984 11.7264C201.64 11.7264 203.992 12.1341 206.041 12.9496C208.09 13.765 209.742 14.9255 210.996 16.4309C212.272 17.9364 213.056 19.7136 213.349 21.7627L204.63 23.3308C204.483 22.0763 203.94 21.0831 202.999 20.3513C202.058 19.6195 200.782 19.1909 199.172 19.0654C197.604 18.9609 196.339 19.17 195.378 19.6927C194.437 20.2154 193.966 20.9681 193.966 21.9509C193.966 22.5363 194.165 23.0277 194.562 23.4249C194.98 23.8222 195.827 24.2299 197.103 24.6481C198.399 25.0663 200.364 25.6099 202.999 26.279C205.571 26.9481 207.63 27.7322 209.177 28.6312C210.746 29.5094 211.885 30.5758 212.596 31.8303C213.307 33.0639 213.662 34.5589 213.662 36.3152C213.662 39.7861 212.408 42.5147 209.899 44.5011C207.39 46.4874 203.919 47.4806 199.486 47.4806ZM237.741 46.5397C235.4 46.9788 233.1 47.1669 230.842 47.1042C228.604 47.0624 226.597 46.6756 224.82 45.9438C223.063 45.1911 221.725 43.9888 220.805 42.337C219.969 40.7897 219.53 39.2216 219.488 37.6325C219.446 36.0225 219.425 34.2034 219.425 32.1753V3.25833H227.956V31.6735C227.956 32.9907 227.967 34.1825 227.988 35.2489C228.029 36.2943 228.249 37.1307 228.646 37.758C229.399 38.9498 230.601 39.5979 232.253 39.7025C233.905 39.807 235.734 39.7234 237.741 39.4516V46.5397ZM213.654 19.2536V12.6673H237.741V19.2536H213.654Z"
        fill="#6959D2" />
</svg>