<svg width="24" height="24" viewBox="0 0 24 24" fill="none" xmlns="http://www.w3.org/2000/svg">
    <path
        d="M11 19.5273V14.5273L3.45 6.02734C3.31667 5.89401 3.20833 5.74001 3.125 5.56534C3.04167 5.39068 3 5.21134 3 5.02734C3 4.59401 3.15 4.23568 3.45 3.95234C3.75 3.66901 4.11667 3.52734 4.55 3.52734H19.45C19.8833 3.52734 20.25 3.66901 20.55 3.95234C20.85 4.23568 21 4.59401 21 5.02734C21 5.21068 20.9583 5.39001 20.875 5.56534C20.7917 5.74068 20.6833 5.89468 20.55 6.02734L13 14.5273V19.5273H17C17.2833 19.5273 17.521 19.6233 17.713 19.8153C17.905 20.0073 18.0007 20.2447 18 20.5273C18 20.8107 17.904 21.0483 17.712 21.2403C17.52 21.4323 17.2827 21.528 17 21.5273H7C6.71667 21.5273 6.47933 21.4313 6.288 21.2393C6.09667 21.0473 6.00067 20.81 6 20.5273C6 20.244 6.096 20.0067 6.288 19.8153C6.48 19.624 6.71733 19.528 7 19.5273H11ZM7.45 7.52734H16.55L18.35 5.52734H5.65L7.45 7.52734Z"
        fill="#2B3A4B"
    />
</svg>