<svg width="24" height="24" viewBox="0 0 24 24" fill="none" xmlns="http://www.w3.org/2000/svg">
    <path
        d="M7 8.52734C6.45 8.52734 5.97917 8.33151 5.5875 7.93984C5.19583 7.54818 5 7.07734 5 6.52734V4.52734C5 3.97734 5.19583 3.50651 5.5875 3.11484C5.97917 2.72318 6.45 2.52734 7 2.52734H17C17.55 2.52734 18.0208 2.72318 18.4125 3.11484C18.8042 3.50651 19 3.97734 19 4.52734V6.52734C19 7.07734 18.8042 7.54818 18.4125 7.93984C18.0208 8.33151 17.55 8.52734 17 8.52734H7ZM7 6.52734H17V4.52734H7V6.52734ZM4 22.5273C3.45 22.5273 2.97917 22.3315 2.5875 21.9398C2.19583 21.5482 2 21.0773 2 20.5273V19.5273H22V20.5273C22 21.0773 21.8042 21.5482 21.4125 21.9398C21.0208 22.3315 20.55 22.5273 20 22.5273H4ZM2 18.5273L5.475 10.7023C5.64167 10.3357 5.89167 10.0482 6.225 9.83984C6.55833 9.63151 6.91667 9.52734 7.3 9.52734H16.7C17.0833 9.52734 17.4417 9.63151 17.775 9.83984C18.1083 10.0482 18.3583 10.3357 18.525 10.7023L22 18.5273H2ZM8.5 16.5273H9.5C9.63333 16.5273 9.75 16.4773 9.85 16.3773C9.95 16.2773 10 16.1607 10 16.0273C10 15.894 9.95 15.7773 9.85 15.6773C9.75 15.5773 9.63333 15.5273 9.5 15.5273H8.5C8.36667 15.5273 8.25 15.5773 8.15 15.6773C8.05 15.7773 8 15.894 8 16.0273C8 16.1607 8.05 16.2773 8.15 16.3773C8.25 16.4773 8.36667 16.5273 8.5 16.5273ZM8.5 14.5273H9.5C9.63333 14.5273 9.75 14.4773 9.85 14.3773C9.95 14.2773 10 14.1607 10 14.0273C10 13.894 9.95 13.7773 9.85 13.6773C9.75 13.5773 9.63333 13.5273 9.5 13.5273H8.5C8.36667 13.5273 8.25 13.5773 8.15 13.6773C8.05 13.7773 8 13.894 8 14.0273C8 14.1607 8.05 14.2773 8.15 14.3773C8.25 14.4773 8.36667 14.5273 8.5 14.5273ZM8.5 12.5273H9.5C9.63333 12.5273 9.75 12.4773 9.85 12.3773C9.95 12.2773 10 12.1607 10 12.0273C10 11.894 9.95 11.7773 9.85 11.6773C9.75 11.5773 9.63333 11.5273 9.5 11.5273H8.5C8.36667 11.5273 8.25 11.5773 8.15 11.6773C8.05 11.7773 8 11.894 8 12.0273C8 12.1607 8.05 12.2773 8.15 12.3773C8.25 12.4773 8.36667 12.5273 8.5 12.5273ZM11.5 16.5273H12.5C12.6333 16.5273 12.75 16.4773 12.85 16.3773C12.95 16.2773 13 16.1607 13 16.0273C13 15.894 12.95 15.7773 12.85 15.6773C12.75 15.5773 12.6333 15.5273 12.5 15.5273H11.5C11.3667 15.5273 11.25 15.5773 11.15 15.6773C11.05 15.7773 11 15.894 11 16.0273C11 16.1607 11.05 16.2773 11.15 16.3773C11.25 16.4773 11.3667 16.5273 11.5 16.5273ZM11.5 14.5273H12.5C12.6333 14.5273 12.75 14.4773 12.85 14.3773C12.95 14.2773 13 14.1607 13 14.0273C13 13.894 12.95 13.7773 12.85 13.6773C12.75 13.5773 12.6333 13.5273 12.5 13.5273H11.5C11.3667 13.5273 11.25 13.5773 11.15 13.6773C11.05 13.7773 11 13.894 11 14.0273C11 14.1607 11.05 14.2773 11.15 14.3773C11.25 14.4773 11.3667 14.5273 11.5 14.5273ZM11.5 12.5273H12.5C12.6333 12.5273 12.75 12.4773 12.85 12.3773C12.95 12.2773 13 12.1607 13 12.0273C13 11.894 12.95 11.7773 12.85 11.6773C12.75 11.5773 12.6333 11.5273 12.5 11.5273H11.5C11.3667 11.5273 11.25 11.5773 11.15 11.6773C11.05 11.7773 11 11.894 11 12.0273C11 12.1607 11.05 12.2773 11.15 12.3773C11.25 12.4773 11.3667 12.5273 11.5 12.5273ZM14.5 16.5273H15.5C15.6333 16.5273 15.75 16.4773 15.85 16.3773C15.95 16.2773 16 16.1607 16 16.0273C16 15.894 15.95 15.7773 15.85 15.6773C15.75 15.5773 15.6333 15.5273 15.5 15.5273H14.5C14.3667 15.5273 14.25 15.5773 14.15 15.6773C14.05 15.7773 14 15.894 14 16.0273C14 16.1607 14.05 16.2773 14.15 16.3773C14.25 16.4773 14.3667 16.5273 14.5 16.5273ZM14.5 14.5273H15.5C15.6333 14.5273 15.75 14.4773 15.85 14.3773C15.95 14.2773 16 14.1607 16 14.0273C16 13.894 15.95 13.7773 15.85 13.6773C15.75 13.5773 15.6333 13.5273 15.5 13.5273H14.5C14.3667 13.5273 14.25 13.5773 14.15 13.6773C14.05 13.7773 14 13.894 14 14.0273C14 14.1607 14.05 14.2773 14.15 14.3773C14.25 14.4773 14.3667 14.5273 14.5 14.5273ZM14.5 12.5273H15.5C15.6333 12.5273 15.75 12.4773 15.85 12.3773C15.95 12.2773 16 12.1607 16 12.0273C16 11.894 15.95 11.7773 15.85 11.6773C15.75 11.5773 15.6333 11.5273 15.5 11.5273H14.5C14.3667 11.5273 14.25 11.5773 14.15 11.6773C14.05 11.7773 14 11.894 14 12.0273C14 12.1607 14.05 12.2773 14.15 12.3773C14.25 12.4773 14.3667 12.5273 14.5 12.5273Z"
        fill="#2B3A4B"
    />
</svg>