<svg width="24" height="24" viewBox="0 0 24 24" fill="none" xmlns="http://www.w3.org/2000/svg">
    <path
        d="M5 21.5273C4.45 21.5273 3.97933 21.3317 3.588 20.9403C3.19667 20.549 3.00067 20.078 3 19.5273V5.52734C3 4.97734 3.196 4.50668 3.588 4.11534C3.98 3.72401 4.45067 3.52801 5 3.52734H9C9.55 3.52734 10.021 3.72334 10.413 4.11534C10.805 4.50734 11.0007 4.97801 11 5.52734V19.5273C11 20.0773 10.8043 20.5483 10.413 20.9403C10.0217 21.3323 9.55067 21.528 9 21.5273H5ZM15 21.5273C14.45 21.5273 13.9793 21.3317 13.588 20.9403C13.1967 20.549 13.0007 20.078 13 19.5273V14.5273C13 13.9773 13.196 13.5067 13.588 13.1153C13.98 12.724 14.4507 12.528 15 12.5273H19C19.55 12.5273 20.021 12.7233 20.413 13.1153C20.805 13.5073 21.0007 13.978 21 14.5273V19.5273C21 20.0773 20.8043 20.5483 20.413 20.9403C20.0217 21.3323 19.5507 21.528 19 21.5273H15ZM15 10.5273C14.45 10.5273 13.9793 10.3317 13.588 9.94034C13.1967 9.54901 13.0007 9.07801 13 8.52734V5.52734C13 4.97734 13.196 4.50668 13.588 4.11534C13.98 3.72401 14.4507 3.52801 15 3.52734H19C19.55 3.52734 20.021 3.72334 20.413 4.11534C20.805 4.50734 21.0007 4.97801 21 5.52734V8.52734C21 9.07734 20.8043 9.54834 20.413 9.94034C20.0217 10.3323 19.5507 10.528 19 10.5273H15Z"
        fill="#2B3A4B"
    />
</svg>