<svg width="24" height="24" viewBox="0 0 24 24" fill="none" xmlns="http://www.w3.org/2000/svg">
    <path
        d="M2 12.5273C2 13.6607 2.28333 14.6983 2.85 15.6403C3.41667 16.5823 4.175 17.303 5.125 17.8023C5.35833 17.9357 5.52933 18.1273 5.638 18.3773C5.74667 18.6273 5.75067 18.8773 5.65 19.1273C5.55 19.394 5.375 19.5857 5.125 19.7023C4.875 19.819 4.63333 19.8107 4.4 19.6773C3.1 19.0107 2.04167 18.0483 1.225 16.7903C0.408333 15.5323 0 14.1113 0 12.5273C0 10.9607 0.396 9.55234 1.188 8.30234C1.98 7.05234 3.01733 6.09401 4.3 5.42734C4.53333 5.29401 4.77933 5.28134 5.038 5.38934C5.29667 5.49734 5.484 5.68501 5.6 5.95234C5.71667 6.18568 5.725 6.42734 5.625 6.67734C5.525 6.92734 5.35833 7.11901 5.125 7.25234C4.175 7.75234 3.41667 8.47334 2.85 9.41534C2.28333 10.3573 2 11.3947 2 12.5273ZM14 20.5273C11.7833 20.5273 9.89567 19.7483 8.337 18.1903C6.77833 16.6323 5.99933 14.7447 6 12.5273C6.00067 10.31 6.78 8.42234 8.338 6.86434C9.896 5.30634 11.7833 4.52734 14 4.52734C14.9333 4.52734 15.8167 4.67734 16.65 4.97734C17.4833 5.27734 18.2417 5.69401 18.925 6.22734C19.1417 6.39401 19.25 6.61068 19.25 6.87734C19.25 7.14401 19.15 7.37734 18.95 7.57734C18.7667 7.76068 18.5373 7.86068 18.262 7.87734C17.9867 7.89401 17.7327 7.81901 17.5 7.65234C17 7.28568 16.454 7.00668 15.862 6.81534C15.27 6.62401 14.6493 6.52801 14 6.52734C12.3333 6.52734 10.9167 7.11068 9.75 8.27734C8.58333 9.44401 8 10.8607 8 12.5273C8 14.194 8.58333 15.6107 9.75 16.7773C10.9167 17.944 12.3333 18.5273 14 18.5273C14.65 18.5273 15.271 18.4313 15.863 18.2393C16.455 18.0473 17.0007 17.7683 17.5 17.4023C17.7333 17.2357 17.9877 17.1607 18.263 17.1773C18.5383 17.194 18.7673 17.294 18.95 17.4773C19.15 17.6773 19.25 17.9107 19.25 18.1773C19.25 18.444 19.1417 18.6607 18.925 18.8273C18.2417 19.3607 17.4833 19.7773 16.65 20.0773C15.8167 20.3773 14.9333 20.5273 14 20.5273ZM20.2 13.5273H14C13.7167 13.5273 13.4793 13.4313 13.288 13.2393C13.0967 13.0473 13.0007 12.81 13 12.5273C12.9993 12.2447 13.0953 12.0073 13.288 11.8153C13.4807 11.6233 13.718 11.5273 14 11.5273H20.2L19.3 10.6273C19.1167 10.444 19.025 10.2107 19.025 9.92734C19.025 9.64401 19.1167 9.41068 19.3 9.22734C19.4833 9.04401 19.7167 8.95234 20 8.95234C20.2833 8.95234 20.5167 9.04401 20.7 9.22734L23.3 11.8273C23.5 12.0273 23.6 12.2607 23.6 12.5273C23.6 12.794 23.5 13.0273 23.3 13.2273L20.7 15.8273C20.5167 16.0107 20.2833 16.1023 20 16.1023C19.7167 16.1023 19.4833 16.0107 19.3 15.8273C19.1167 15.644 19.025 15.4107 19.025 15.1273C19.025 14.844 19.1167 14.6107 19.3 14.4273L20.2 13.5273Z"
        fill="#2B3A4B"
    />
</svg>