<svg width="24" height="24" viewBox="0 0 24 24" fill="none" xmlns="http://www.w3.org/2000/svg">
    <path
        d="M9.74982 22.5273C8.06649 22.5273 6.58749 21.965 5.31282 20.8403C4.03815 19.7157 3.26715 18.3197 2.99982 16.6523C2.96649 16.3523 3.04982 16.0897 3.24982 15.8643C3.44982 15.639 3.69982 15.5267 3.99982 15.5273H14.5248L15.6248 5.17735C15.7082 4.42735 16.0292 3.79801 16.5878 3.28935C17.1465 2.78068 17.8172 2.52668 18.5998 2.52735C19.4332 2.52735 20.1415 2.81901 20.7248 3.40235C21.3082 3.98568 21.5998 4.69401 21.5998 5.52734V5.77734C21.5998 6.06068 21.5038 6.29834 21.3118 6.49034C21.1198 6.68234 20.8825 6.77801 20.5998 6.77735C20.3165 6.77735 20.0792 6.68134 19.8878 6.48934C19.6965 6.29734 19.6005 6.06001 19.5998 5.77734V5.52734C19.5998 5.24401 19.5038 5.00668 19.3118 4.81535C19.1198 4.62401 18.8825 4.52801 18.5998 4.52734C18.3332 4.52734 18.1082 4.61501 17.9248 4.79034C17.7415 4.96568 17.6332 5.17801 17.5998 5.42735L16.4498 16.3023C16.2665 18.069 15.5415 19.5483 14.2748 20.7403C13.0082 21.9323 11.4998 22.528 9.74982 22.5273ZM6.17482 14.0273C5.89149 14.0273 5.69148 13.948 5.57482 13.7893C5.45815 13.6307 5.41649 13.4183 5.44982 13.1523C5.46649 13.0023 5.47915 12.8813 5.48782 12.7893C5.49649 12.6973 5.50049 12.61 5.49982 12.5273C5.49982 12.0273 5.33315 11.394 4.99982 10.6273C4.66649 9.86068 4.49982 9.28568 4.49982 8.90235C4.49982 8.75235 4.50815 8.59835 4.52482 8.44035C4.54149 8.28235 4.59149 8.12801 4.67482 7.97734C4.74149 7.84401 4.83315 7.73568 4.94982 7.65235C5.06649 7.56901 5.19148 7.52735 5.32482 7.52735C5.59149 7.52735 5.79582 7.60635 5.93782 7.76435C6.07982 7.92235 6.11715 8.13501 6.04982 8.40235C6.01649 8.55235 5.99982 8.71901 5.99982 8.90235C5.99982 9.28568 6.16649 9.86068 6.49982 10.6273C6.83315 11.394 6.99982 12.0273 6.99982 12.5273C6.99982 12.7773 6.98315 12.9857 6.94982 13.1523C6.91649 13.319 6.87482 13.4607 6.82482 13.5773C6.75815 13.7107 6.66649 13.819 6.54982 13.9023C6.43315 13.9857 6.30815 14.0273 6.17482 14.0273ZM12.6748 14.0273C12.3915 14.0273 12.1915 13.948 12.0748 13.7893C11.9582 13.6307 11.9165 13.4183 11.9498 13.1523C11.9665 13.0023 11.9792 12.8813 11.9878 12.7893C11.9965 12.6973 12.0005 12.61 11.9998 12.5273C11.9998 12.0273 11.8332 11.394 11.4998 10.6273C11.1665 9.86068 10.9998 9.28568 10.9998 8.90235C10.9998 8.75235 11.0082 8.59835 11.0248 8.44035C11.0415 8.28235 11.0915 8.12801 11.1748 7.97734C11.2415 7.84401 11.3332 7.73568 11.4498 7.65235C11.5665 7.56901 11.6915 7.52735 11.8248 7.52735C12.0915 7.52735 12.2958 7.60635 12.4378 7.76435C12.5798 7.92235 12.6172 8.13501 12.5498 8.40235C12.5165 8.55235 12.4998 8.71901 12.4998 8.90235C12.4998 9.28568 12.6665 9.86068 12.9998 10.6273C13.3332 11.394 13.4998 12.0273 13.4998 12.5273C13.4998 12.7773 13.4832 12.9857 13.4498 13.1523C13.4165 13.319 13.3748 13.4607 13.3248 13.5773C13.2582 13.7107 13.1665 13.819 13.0498 13.9023C12.9332 13.9857 12.8082 14.0273 12.6748 14.0273ZM9.42482 14.0273C9.14149 14.0273 8.94149 13.948 8.82482 13.7893C8.70815 13.6307 8.66649 13.4183 8.69982 13.1523C8.71649 13.0023 8.72915 12.8813 8.73782 12.7893C8.74649 12.6973 8.75049 12.61 8.74982 12.5273C8.74982 12.0273 8.58315 11.394 8.24982 10.6273C7.91649 9.86068 7.74982 9.28568 7.74982 8.90235C7.74982 8.75235 7.75815 8.59835 7.77482 8.44035C7.79149 8.28235 7.84149 8.12801 7.92482 7.97734C7.99149 7.84401 8.08315 7.73568 8.19982 7.65235C8.31649 7.56901 8.44149 7.52735 8.57482 7.52735C8.84149 7.52735 9.04582 7.60635 9.18782 7.76435C9.32982 7.92235 9.36715 8.13501 9.29982 8.40235C9.26649 8.55235 9.24982 8.71901 9.24982 8.90235C9.24982 9.28568 9.41649 9.86068 9.74982 10.6273C10.0832 11.394 10.2498 12.0273 10.2498 12.5273C10.2498 12.7773 10.2332 12.9857 10.1998 13.1523C10.1665 13.319 10.1248 13.4607 10.0748 13.5773C10.0082 13.7107 9.91649 13.819 9.79982 13.9023C9.68315 13.9857 9.55815 14.0273 9.42482 14.0273Z"
        fill="#2B3A4B"
    />
</svg>