<svg width="24" height="24" viewBox="0 0 24 24" fill="none" xmlns="http://www.w3.org/2000/svg">
    <path
        d="M18 19.5273C18.55 19.5273 19.021 19.3317 19.413 18.9403C19.805 18.549 20.0007 18.078 20 17.5273C20 16.9773 19.8043 16.5067 19.413 16.1153C19.0217 15.724 18.5507 15.528 18 15.5273C17.45 15.5273 16.9793 15.7233 16.588 16.1153C16.1967 16.5073 16.0007 16.978 16 17.5273C16 18.0773 16.196 18.5483 16.588 18.9403C16.98 19.3323 17.4507 19.528 18 19.5273ZM17.8 22.5273C17.5667 22.5273 17.3627 22.4523 17.188 22.3023C17.0133 22.1523 16.9007 21.9607 16.85 21.7273L16.7 21.0273C16.5 20.944 16.3127 20.8567 16.138 20.7653C15.9633 20.674 15.784 20.5613 15.6 20.4273L14.875 20.6523C14.6583 20.719 14.446 20.7107 14.238 20.6273C14.03 20.544 13.8673 20.4107 13.75 20.2273L13.55 19.8773C13.4333 19.6773 13.3917 19.4607 13.425 19.2273C13.4583 18.994 13.5667 18.8023 13.75 18.6523L14.3 18.1773C14.2667 17.9773 14.25 17.7607 14.25 17.5273C14.25 17.294 14.2667 17.0773 14.3 16.8773L13.75 16.4023C13.5667 16.2523 13.4583 16.065 13.425 15.8403C13.3917 15.6157 13.4333 15.403 13.55 15.2023L13.775 14.8273C13.8917 14.644 14.05 14.5107 14.25 14.4273C14.45 14.344 14.6583 14.3357 14.875 14.4023L15.6 14.6273C15.7833 14.494 15.9627 14.3817 16.138 14.2903C16.3133 14.199 16.5007 14.1113 16.7 14.0273L16.85 13.3023C16.9 13.069 17.0123 12.8817 17.187 12.7403C17.3617 12.599 17.566 12.528 17.8 12.5273H18.2C18.4333 12.5273 18.6377 12.6023 18.813 12.7523C18.9883 12.9023 19.1007 13.094 19.15 13.3273L19.3 14.0273C19.5 14.1107 19.6873 14.198 19.862 14.2893C20.0367 14.3807 20.216 14.4933 20.4 14.6273L21.125 14.4023C21.3417 14.3357 21.5543 14.344 21.763 14.4273C21.9717 14.5107 22.134 14.644 22.25 14.8273L22.45 15.1773C22.5667 15.3773 22.6083 15.594 22.575 15.8273C22.5417 16.0607 22.4333 16.2523 22.25 16.4023L21.7 16.8773C21.7333 17.0773 21.75 17.294 21.75 17.5273C21.75 17.7607 21.7333 17.9773 21.7 18.1773L22.25 18.6523C22.4333 18.8023 22.5417 18.99 22.575 19.2153C22.6083 19.4407 22.5667 19.653 22.45 19.8523L22.225 20.2273C22.1083 20.4107 21.95 20.544 21.75 20.6273C21.55 20.7107 21.3417 20.719 21.125 20.6523L20.4 20.4273C20.2167 20.5607 20.0377 20.673 19.863 20.7643C19.6883 20.8557 19.5007 20.9433 19.3 21.0273L19.15 21.7523C19.1 21.9857 18.9877 22.1733 18.813 22.3153C18.6383 22.4573 18.434 22.528 18.2 22.5273H17.8ZM4 20.5273C3.45 20.5273 2.97933 20.3317 2.588 19.9403C2.19667 19.549 2.00067 19.078 2 18.5273V6.52734C2 5.97734 2.196 5.50668 2.588 5.11534C2.98 4.72401 3.45067 4.52801 4 4.52734H9.175C9.44167 4.52734 9.696 4.57734 9.938 4.67734C10.18 4.77734 10.3923 4.91901 10.575 5.10234L12 6.52734H20C20.55 6.52734 21.021 6.72334 21.413 7.11534C21.805 7.50734 22.0007 7.97801 22 8.52734V10.4273C22 10.7273 21.871 10.9523 21.613 11.1023C21.355 11.2523 21.084 11.2607 20.8 11.1273C20.3667 10.9273 19.9083 10.7773 19.425 10.6773C18.9417 10.5773 18.4583 10.5273 17.975 10.5273C16.0083 10.5273 14.3543 11.215 13.013 12.5903C11.6717 13.9657 11.0007 15.603 11 17.5023C11 17.819 11.021 18.1317 11.063 18.4403C11.105 18.749 11.1673 19.053 11.25 19.3523C11.3333 19.6523 11.2917 19.9233 11.125 20.1653C10.9583 20.4073 10.7333 20.528 10.45 20.5273H4Z"
        fill="#2B3A4B"
    />
</svg>