<svg width="24" height="24" viewBox="0 0 24 24" fill="none" xmlns="http://www.w3.org/2000/svg">
    <path
        d="M10 15.5273C9.71667 15.5273 9.47933 15.4313 9.288 15.2393C9.09667 15.0473 9.00067 14.81 9 14.5273V14.0273C9 13.194 9.29167 12.4857 9.875 11.9023C10.4583 11.319 11.1667 11.0273 12 11.0273H13V9.62734C13 9.51068 13.05 9.43134 13.15 9.38934C13.25 9.34734 13.3417 9.36834 13.425 9.45234L15.65 11.6773C15.75 11.7773 15.8 11.894 15.8 12.0273C15.8 12.1607 15.75 12.2773 15.65 12.3773L13.425 14.6023C13.3417 14.6857 13.25 14.7063 13.15 14.6643C13.05 14.6223 13 14.5433 13 14.4273V13.0273H12C11.7167 13.0273 11.4793 13.123 11.288 13.3143C11.0967 13.5057 11.0007 13.7433 11 14.0273V14.5273C11 14.8107 10.904 15.0483 10.712 15.2403C10.52 15.4323 10.2827 15.528 10 15.5273ZM7 23.5273C6.45 23.5273 5.97933 23.3317 5.588 22.9403C5.19667 22.549 5.00067 22.078 5 21.5273V3.52734C5 2.97734 5.196 2.50668 5.588 2.11534C5.98 1.72401 6.45067 1.52801 7 1.52734H17C17.55 1.52734 18.021 1.72334 18.413 2.11534C18.805 2.50734 19.0007 2.97801 19 3.52734V21.5273C19 22.0773 18.8043 22.5483 18.413 22.9403C18.0217 23.3323 17.5507 23.528 17 23.5273H7ZM7 18.5273H17V6.52734H7V18.5273Z"
        fill="#2B3A4B"
    />
</svg>