<svg width="24" height="24" viewBox="0 0 24 24" fill="none" xmlns="http://www.w3.org/2000/svg">
    <path
        d="M7 22.5273C6.45 22.5273 5.97933 22.3317 5.588 21.9403C5.19667 21.549 5.00067 21.078 5 20.5273C5 19.9773 5.196 19.5067 5.588 19.1153C5.98 18.724 6.45067 18.528 7 18.5273C7.55 18.5273 8.021 18.7233 8.413 19.1153C8.805 19.5073 9.00067 19.978 9 20.5273C9 21.0773 8.80433 21.5483 8.413 21.9403C8.02167 22.3323 7.55067 22.528 7 22.5273ZM17 22.5273C16.45 22.5273 15.9793 22.3317 15.588 21.9403C15.1967 21.549 15.0007 21.078 15 20.5273C15 19.9773 15.196 19.5067 15.588 19.1153C15.98 18.724 16.4507 18.528 17 18.5273C17.55 18.5273 18.021 18.7233 18.413 19.1153C18.805 19.5073 19.0007 19.978 19 20.5273C19 21.0773 18.8043 21.5483 18.413 21.9403C18.0217 22.3323 17.5507 22.528 17 22.5273ZM5.2 4.52734H19.95C20.3333 4.52734 20.625 4.69834 20.825 5.04034C21.025 5.38234 21.0333 5.72801 20.85 6.07734L17.3 12.4773C17.1167 12.8107 16.871 13.069 16.563 13.2523C16.255 13.4357 15.9173 13.5273 15.55 13.5273H8.1L7 15.5273H18C18.2833 15.5273 18.521 15.6233 18.713 15.8153C18.905 16.0073 19.0007 16.2447 19 16.5273C19 16.8107 18.904 17.0483 18.712 17.2403C18.52 17.4323 18.2827 17.528 18 17.5273H7C6.25 17.5273 5.68333 17.1983 5.3 16.5403C4.91667 15.8823 4.9 15.228 5.25 14.5773L6.6 12.1273L3 4.52734H2C1.71667 4.52734 1.47933 4.43134 1.288 4.23934C1.09667 4.04734 1.00067 3.81001 1 3.52734C1 3.24401 1.096 3.00668 1.288 2.81534C1.48 2.62401 1.71733 2.52801 2 2.52734H3.625C3.80833 2.52734 3.98333 2.57734 4.15 2.67734C4.31667 2.77734 4.44167 2.91901 4.525 3.10234L5.2 4.52734Z"
        fill="#2B3A4B"
    />
</svg>