<svg width="24" height="24" viewBox="0 0 24 24" fill="none" xmlns="http://www.w3.org/2000/svg">
    <path fill-rule="evenodd" clip-rule="evenodd"
        d="M8 19.5275V21.5275H16V19.5275H14V17.5275H20C20.55 17.5275 21.0208 17.3316 21.4125 16.94C21.8042 16.5483 22 16.0775 22 15.5275V5.52747C22 4.97747 21.8042 4.50663 21.4125 4.11497C21.0208 3.7233 20.55 3.52747 20 3.52747H4C3.45 3.52747 2.97917 3.7233 2.5875 4.11497C2.19583 4.50663 2 4.97747 2 5.52747V15.5275C2 16.0775 2.19583 16.5483 2.5875 16.94C2.97917 17.3316 3.45 17.5275 4 17.5275H10V19.5275H8ZM11.1429 14.6941V15.5275H12.8571V14.6941H14.1429C14.3857 14.6941 14.5893 14.6143 14.7536 14.4545C14.9179 14.2948 15 14.0969 15 13.8608V10.5275C15 10.2914 14.9179 10.0934 14.7536 9.93372C14.5893 9.77399 14.3857 9.69413 14.1429 9.69413H10.7143V8.02747H15V6.3608H12.8571V5.52747H11.1429V6.3608H9.85714C9.61429 6.3608 9.41071 6.44066 9.24643 6.60038C9.08214 6.7601 9 6.95802 9 7.19413V10.5275C9 10.7636 9.08214 10.9615 9.24643 11.1212C9.41071 11.2809 9.61429 11.3608 9.85714 11.3608H13.2857V13.0275H9V14.6941H11.1429Z"
        fill="#2B3A4B"
    />
</svg>