<svg width="24" height="24" viewBox="0 0 24 24" fill="none" xmlns="http://www.w3.org/2000/svg">
    <path
        d="M6 22.5273C5.45 22.5273 4.97933 22.3317 4.588 21.9403C4.19667 21.549 4.00067 21.078 4 20.5273V4.52734C4 3.97734 4.196 3.50668 4.588 3.11534C4.98 2.72401 5.45067 2.52801 6 2.52734H13.175C13.4417 2.52734 13.696 2.57734 13.938 2.67734C14.18 2.77734 14.3923 2.91901 14.575 3.10234L19.425 7.95234C19.6083 8.13568 19.75 8.34834 19.85 8.59034C19.95 8.83234 20 9.08634 20 9.35234V20.5273C20 21.0773 19.8043 21.5483 19.413 21.9403C19.0217 22.3323 18.5507 22.528 18 22.5273H6ZM13 8.52734C13 8.81068 13.096 9.04834 13.288 9.24034C13.48 9.43234 13.7173 9.52801 14 9.52734H18L13 4.52734V8.52734ZM10.925 15.6523L9.525 14.2523C9.425 14.1523 9.31667 14.0773 9.2 14.0273C9.08333 13.9773 8.96267 13.9523 8.838 13.9523C8.71267 13.9523 8.58767 13.9773 8.463 14.0273C8.33833 14.0773 8.22567 14.1523 8.125 14.2523C7.925 14.4523 7.825 14.69 7.825 14.9653C7.825 15.2407 7.925 15.478 8.125 15.6773L10.25 17.8273C10.35 17.9273 10.4583 17.9983 10.575 18.0403C10.6917 18.0823 10.8167 18.103 10.95 18.1023C11.0833 18.1023 11.2083 18.0817 11.325 18.0403C11.4417 17.999 11.55 17.928 11.65 17.8273L15.875 13.6023C16.075 13.4023 16.175 13.1607 16.175 12.8773C16.175 12.594 16.075 12.3523 15.875 12.1523C15.675 11.9523 15.4333 11.8523 15.15 11.8523C14.8667 11.8523 14.625 11.9523 14.425 12.1523L10.925 15.6523Z"
        fill="#2B3A4B"
    />
</svg>