<svg width="24" height="24" viewBox="0 0 24 24" fill="none" xmlns="http://www.w3.org/2000/svg">
    <path
        d="M6 22.5273C5.45 22.5273 4.97933 22.3317 4.588 21.9403C4.19667 21.549 4.00067 21.078 4 20.5273V4.52734C4 3.97734 4.196 3.50668 4.588 3.11534C4.98 2.72401 5.45067 2.52801 6 2.52734H13.175C13.4417 2.52734 13.696 2.57734 13.938 2.67734C14.18 2.77734 14.3923 2.91901 14.575 3.10234L19.425 7.95234C19.6083 8.13568 19.75 8.34834 19.85 8.59034C19.95 8.83234 20 9.08634 20 9.35234V10.9273C20 11.1107 19.946 11.269 19.838 11.4023C19.73 11.5357 19.5923 11.6357 19.425 11.7023C19.1583 11.8023 18.904 11.9317 18.662 12.0903C18.42 12.249 18.1993 12.428 18 12.6273L12.6 18.0273C12.4167 18.2107 12.271 18.4233 12.163 18.6653C12.055 18.9073 12.0007 19.1613 12 19.4273V21.5273C12 21.8107 11.904 22.0483 11.712 22.2403C11.52 22.4323 11.2827 22.528 11 22.5273H6ZM14 21.5273V19.8773C14 19.744 14.025 19.615 14.075 19.4903C14.125 19.3657 14.2 19.253 14.3 19.1523L19.525 13.9523C19.675 13.8023 19.8417 13.694 20.025 13.6273C20.2083 13.5607 20.3917 13.5273 20.575 13.5273C20.775 13.5273 20.9667 13.565 21.15 13.6403C21.3333 13.7157 21.5 13.828 21.65 13.9773L22.575 14.9023C22.7083 15.0523 22.8127 15.219 22.888 15.4023C22.9633 15.5857 23.0007 15.769 23 15.9523C23 16.1357 22.9667 16.3233 22.9 16.5153C22.8333 16.7073 22.725 16.878 22.575 17.0273L17.375 22.2273C17.275 22.3273 17.1627 22.4023 17.038 22.4523C16.9133 22.5023 16.784 22.5273 16.65 22.5273H15C14.7167 22.5273 14.4793 22.4317 14.288 22.2403C14.0967 22.049 14.0007 21.8113 14 21.5273ZM20.575 16.9273L21.5 15.9523L20.575 15.0273L19.625 15.9773L20.575 16.9273ZM14 9.52734H18L13 4.52734V8.52734C13 8.81068 13.096 9.04834 13.288 9.24034C13.48 9.43234 13.7173 9.52801 14 9.52734Z"
        fill="#2B3A4B"
    />
</svg>