<svg width="24" height="24" viewBox="0 0 24 24" fill="none" xmlns="http://www.w3.org/2000/svg">
    <g clip-path="url(#clip0_4468_2322)">
        <path
            d="M7.5 14.2773V14.7773C7.5 14.994 7.571 15.1733 7.713 15.3153C7.855 15.4573 8.034 15.528 8.25 15.5273C8.46667 15.5273 8.646 15.4563 8.788 15.3143C8.93 15.1723 9.00067 14.9933 9 14.7773V12.2773C9 12.0607 8.929 11.8817 8.787 11.7403C8.645 11.599 8.466 11.528 8.25 11.5273C8.03333 11.5273 7.85433 11.5983 7.713 11.7403C7.57167 11.8823 7.50067 12.0613 7.5 12.2773V12.7773H6.75C6.53333 12.7773 6.35433 12.8483 6.213 12.9903C6.07167 13.1323 6.00067 13.3113 6 13.5273C6 13.744 6.071 13.9233 6.213 14.0653C6.355 14.2073 6.534 14.278 6.75 14.2773H7.5ZM10.75 14.2773H17.25C17.4667 14.2773 17.646 14.2063 17.788 14.0643C17.93 13.9223 18.0007 13.7433 18 13.5273C18 13.3107 17.929 13.1317 17.787 12.9903C17.645 12.849 17.466 12.778 17.25 12.7773H10.75C10.5333 12.7773 10.3543 12.8483 10.213 12.9903C10.0717 13.1323 10.0007 13.3113 10 13.5273C10 13.744 10.071 13.9233 10.213 14.0653C10.355 14.2073 10.534 14.278 10.75 14.2773ZM16.5 10.2773H17.25C17.4667 10.2773 17.646 10.2063 17.788 10.0643C17.93 9.92234 18.0007 9.74334 18 9.52734C18 9.31068 17.929 9.13168 17.787 8.99034C17.645 8.84901 17.466 8.77801 17.25 8.77734H16.5V8.27734C16.5 8.06068 16.429 7.88168 16.287 7.74034C16.145 7.59901 15.966 7.52801 15.75 7.52734C15.5333 7.52734 15.3543 7.59834 15.213 7.74034C15.0717 7.88234 15.0007 8.06134 15 8.27734V10.7773C15 10.994 15.071 11.1733 15.213 11.3153C15.355 11.4573 15.534 11.528 15.75 11.5273C15.9667 11.5273 16.146 11.4563 16.288 11.3143C16.43 11.1723 16.5007 10.9933 16.5 10.7773V10.2773ZM6.75 10.2773H13.25C13.4667 10.2773 13.646 10.2063 13.788 10.0643C13.93 9.92234 14.0007 9.74334 14 9.52734C14 9.31068 13.929 9.13168 13.787 8.99034C13.645 8.84901 13.466 8.77801 13.25 8.77734H6.75C6.53333 8.77734 6.35433 8.84834 6.213 8.99034C6.07167 9.13234 6.00067 9.31134 6 9.52734C6 9.74401 6.071 9.92334 6.213 10.0653C6.355 10.2073 6.534 10.278 6.75 10.2773ZM4 19.5273C3.45 19.5273 2.97933 19.3317 2.588 18.9403C2.19667 18.549 2.00067 18.078 2 17.5273V5.52734C2 4.97734 2.196 4.50668 2.588 4.11534C2.98 3.72401 3.45067 3.52801 4 3.52734H20C20.55 3.52734 21.021 3.72334 21.413 4.11534C21.805 4.50734 22.0007 4.97801 22 5.52734V17.5273C22 18.0773 21.8043 18.5483 21.413 18.9403C21.0217 19.3323 20.5507 19.528 20 19.5273H16V20.5273C16 20.8107 15.904 21.0483 15.712 21.2403C15.52 21.4323 15.2827 21.528 15 21.5273H9C8.71667 21.5273 8.47933 21.4313 8.288 21.2393C8.09667 21.0473 8.00067 20.81 8 20.5273V19.5273H4Z"
            fill="#2B3A4B" />
    </g>
    <defs>
        <clipPath id="clip0_4468_2322">
            <rect width="24" height="24" fill="white" transform="translate(0 0.527344)" />
        </clipPath>
    </defs>
</svg>