<svg width="24" height="24" viewBox="0 0 24 24" fill="none" xmlns="http://www.w3.org/2000/svg">
    <path
        d="M12 12.5273C10.9 12.5273 9.95833 12.1357 9.175 11.3523C8.39167 10.569 8 9.62734 8 8.52734C8 7.42734 8.39167 6.48568 9.175 5.70234C9.95833 4.91901 10.9 4.52734 12 4.52734C13.1 4.52734 14.0417 4.91901 14.825 5.70234C15.6083 6.48568 16 7.42734 16 8.52734C16 9.62734 15.6083 10.569 14.825 11.3523C14.0417 12.1357 13.1 12.5273 12 12.5273ZM4 18.5273V17.7273C4 17.1607 4.146 16.64 4.438 16.1653C4.73 15.6907 5.11733 15.328 5.6 15.0773C6.63333 14.5607 7.68333 14.1733 8.75 13.9153C9.81667 13.6573 10.9 13.528 12 13.5273C13.1 13.5273 14.1833 13.6567 15.25 13.9153C16.3167 14.174 17.3667 14.5613 18.4 15.0773C18.8833 15.3273 19.271 15.69 19.563 16.1653C19.855 16.6407 20.0007 17.1613 20 17.7273V18.5273C20 19.0773 19.8043 19.5483 19.413 19.9403C19.0217 20.3323 18.5507 20.528 18 20.5273H6C5.45 20.5273 4.97933 20.3317 4.588 19.9403C4.19667 19.549 4.00067 19.078 4 18.5273Z"
        fill="#2B3A4B"
    />
</svg>